<svg width="122" height="122" viewBox="0 0 122 122" fill="none" xmlns="http://www.w3.org/2000/svg">
<path d="M47.7306 26.8223L103.237 46.4167L79.7881 105.993L20.0312 85.3587L47.7306 26.8223Z" fill="#222222"/>
<path d="M45.1173 21.7969L100.624 41.3914L77.1752 100.967L17.418 80.3332L45.1173 21.7969Z" fill="#FF8751"/>
<path d="M80.8979 35.0898C80.7894 35.0896 80.6826 35.0629 80.5874 35.0118C80.4917 34.9607 80.4105 34.8869 80.3502 34.7968C80.2904 34.7068 80.2532 34.6033 80.2422 34.4956C80.2318 34.3878 80.2477 34.2791 80.2892 34.179C80.3459 34.0384 86.0524 20.0766 83.2556 14.5515C82.7279 13.51 81.9368 12.8717 80.8436 12.6014C72.1591 10.4557 64.1608 28.3616 64.0808 28.5429C64.0101 28.7031 63.8789 28.8288 63.7161 28.8924C63.5532 28.956 63.3714 28.9522 63.211 28.8818C63.0506 28.8115 62.9249 28.6803 62.8615 28.5172C62.798 28.3541 62.8017 28.1725 62.8718 28.0122C62.9566 27.8189 64.9867 23.2397 68.2081 18.8637C70.1186 16.2676 72.0535 14.2922 73.9543 12.9925C76.4163 11.3093 78.8398 10.7458 81.1572 11.3181C82.6273 11.6807 83.7277 12.5673 84.4298 13.9549C87.4994 20.0162 81.7538 34.0823 81.5055 34.6789C81.4561 34.7998 81.3719 34.9035 81.2639 34.9766C81.156 35.0497 81.0285 35.0892 80.8979 35.0898Z" fill="#222222"/>
<path d="M48.0314 22.8256L44.6641 12.084L59.3641 13.5595L60.9945 27.3575L48.0314 22.8256Z" fill="white"/>
<path d="M60.9976 28.0167C60.9227 28.017 60.8484 28.0044 60.7778 27.9793L47.8171 23.4441C47.7199 23.4102 47.6322 23.3542 47.5606 23.2804C47.4891 23.2065 47.4358 23.117 47.4051 23.0189L44.0421 12.2817C44.0094 12.1777 44.003 12.0672 44.0235 11.9601C44.044 11.853 44.0907 11.7526 44.1595 11.668C44.2283 11.5835 44.3171 11.5172 44.4177 11.4754C44.5184 11.4335 44.6279 11.4173 44.7364 11.4281L59.4364 12.9036C59.5857 12.9185 59.7254 12.9839 59.8325 13.089C59.9395 13.1941 60.0075 13.3325 60.0253 13.4814L61.6558 27.2805C61.6668 27.3734 61.6576 27.4675 61.6296 27.5565C61.6015 27.6456 61.5546 27.7276 61.4923 27.7973C61.4295 27.8669 61.3533 27.9225 61.2679 27.9603C61.1825 27.9981 61.0897 28.0173 60.9965 28.0167H60.9976ZM48.5641 22.3125L60.2187 26.3874L58.775 14.1615L45.5912 12.8431L48.5641 22.3125Z" fill="#222222"/>
<path d="M53.648 24.788L51.1211 17.1787L63.4789 20.0231L61.9399 27.7346L53.648 24.788Z" fill="white"/>
<path d="M61.9366 28.3938C61.8616 28.3936 61.7872 28.3806 61.7164 28.3554L53.4251 25.4099C53.3306 25.3761 53.2451 25.3213 53.175 25.2495C53.1049 25.1778 53.0522 25.0909 53.0208 24.9957L50.4938 17.3864C50.4575 17.2758 50.4511 17.1576 50.4753 17.0437C50.4995 16.9299 50.5534 16.8245 50.6315 16.7382C50.7096 16.6519 50.8092 16.5879 50.9201 16.5526C51.031 16.5172 51.1493 16.5119 51.2629 16.5371L63.6239 19.3794C63.7904 19.4178 63.9356 19.5195 64.029 19.663C64.1217 19.8065 64.1558 19.9806 64.1229 20.1484L62.5845 27.8588C62.5662 27.9516 62.5277 28.0395 62.4728 28.1162C62.4173 28.193 62.346 28.2569 62.2636 28.3037C62.1642 28.3614 62.0513 28.3925 61.9366 28.3938ZM54.1688 24.275L61.4389 26.8579L62.704 20.522L52.1133 18.084L54.1688 24.275Z" fill="#222222"/>
<path d="M73.3311 70.2387C71.1991 72.5842 72.1654 75.6305 70.1176 76.6193C68.0302 77.635 65.8177 75.0925 62.4164 75.3725C59.0148 75.6531 57.3338 78.5182 55.075 77.8588C52.8634 77.2116 53.2337 74.0597 50.6804 72.0986C48.1271 70.1374 44.8224 71.0305 43.7358 69.1456C42.6305 67.2247 45.3936 65.1903 45.0915 62.0659C44.7894 58.9411 41.6747 57.3865 42.3921 55.3155C43.0953 53.2819 46.5242 53.6225 48.6545 51.2769C50.7848 48.9313 49.8157 45.8935 51.8669 44.8926C53.9544 43.8763 56.1693 46.4175 59.5696 46.1385C62.9702 45.8594 64.663 43.0007 66.9151 43.6599C69.1282 44.307 68.7579 47.459 71.3096 49.4201C73.8618 51.3813 77.1698 50.4881 78.2556 52.3744C79.3609 54.2971 76.5964 56.3296 76.8996 59.4564C77.2028 62.5832 80.3156 64.132 79.5982 66.2042C78.8925 68.2336 75.4618 67.8939 73.3311 70.2387Z" fill="white"/>
<path d="M55.7625 78.619C55.4678 78.619 55.1748 78.5757 54.8923 78.4921C53.4564 78.0724 52.8961 76.8274 52.3544 75.6245C51.8766 74.5643 51.3822 73.4663 50.2835 72.6215C49.1848 71.7766 47.9005 71.5143 46.67 71.2679C45.2352 70.9806 43.8795 70.7091 43.1686 69.4739C42.4281 68.1874 43.0093 66.9052 43.5707 65.6662C44.0607 64.5829 44.5683 63.4623 44.4397 62.1295C44.3112 60.7969 43.5927 59.7686 42.9016 58.7798C42.1117 57.6537 41.2954 56.489 41.7766 55.0993C42.2414 53.7567 43.5279 53.2667 44.8902 52.7482C46.0526 52.3087 47.2545 51.8483 48.1774 50.8332C49.1003 49.818 49.3661 48.671 49.6309 47.5515C49.9341 46.2738 50.2472 44.9521 51.5898 44.2995C52.9323 43.6469 54.2266 44.1468 55.6032 44.673C56.7985 45.1311 58.0345 45.6047 59.5265 45.4817C61.0183 45.3586 62.1401 44.6928 63.2265 44.0534C64.4801 43.3096 65.6659 42.6065 67.1061 43.0284C68.5463 43.4502 69.1027 44.6928 69.6437 45.8958C70.122 46.9571 70.6161 48.0536 71.7147 48.8984C72.8139 49.7433 74.0979 50.0059 75.3295 50.2531C76.7643 50.5409 78.1203 50.8123 78.8309 52.0472C79.5684 53.3283 78.9871 54.6115 78.4302 55.8551C77.9391 56.9384 77.431 58.0591 77.5609 59.3939C77.6908 60.7288 78.4082 61.7525 79.0993 62.7413C79.8887 63.8668 80.7055 65.0312 80.2242 66.4208C79.7594 67.7646 78.4729 68.2533 77.1107 68.7718C75.9481 69.2116 74.7464 69.6721 73.8234 70.6872C72.909 71.6924 72.6346 72.849 72.3698 73.9677C72.0666 75.2463 71.7537 76.5669 70.4111 77.2209C69.0685 77.8742 67.7741 77.3746 66.3997 76.8469C65.2035 76.3888 63.9665 75.9167 62.4744 76.0387C60.9822 76.1607 59.8605 76.8274 58.7739 77.4722C57.7752 78.056 56.8293 78.619 55.7625 78.619ZM52.9488 45.3081C52.6772 45.3044 52.4084 45.3634 52.1633 45.4806C51.4184 45.8431 51.2118 46.5792 50.9108 47.8514C50.6351 49.0127 50.2923 50.4585 49.153 51.7165C48.0137 52.9745 46.6019 53.5062 45.3604 53.9797C44.075 54.4698 43.273 54.8059 43.0236 55.531C42.7742 56.2561 43.2038 56.9121 43.9827 58.0228C44.7013 59.0412 45.5889 60.3179 45.7515 62.0075C45.9141 63.6972 45.2802 65.0904 44.7715 66.2152C44.2222 67.4328 43.9267 68.1532 44.3112 68.8218C44.6958 69.4897 45.5615 69.7069 46.9282 69.9808C48.2466 70.2443 49.7342 70.5432 51.0866 71.5826C52.439 72.6215 53.0631 73.983 53.5564 75.0816C54.1003 76.29 54.4485 76.9878 55.2626 77.2264C56.1108 77.4746 56.893 77.0482 58.0993 76.3321C59.2584 75.6452 60.5713 74.8663 62.3634 74.7193C64.1549 74.5716 65.5976 75.1231 66.8676 75.6111C68.0632 76.068 69.0081 76.4297 69.834 76.0295C70.5789 75.6672 70.7856 74.9309 71.0864 73.6591C71.3621 72.4976 71.7037 71.0519 72.8444 69.7947C73.979 68.5467 75.3924 68.0086 76.638 67.5347C77.9233 67.0448 78.7254 66.7087 78.9749 65.9834C79.2244 65.2588 78.7949 64.6024 78.0166 63.4928C77.2992 62.4705 76.4074 61.198 76.2439 59.5159C76.0798 57.8338 76.7148 56.4308 77.2211 55.3058C77.7708 54.0896 78.066 53.3689 77.6817 52.6998C77.2974 52.0307 76.4312 51.8209 75.0636 51.5418C73.7454 51.2781 72.2576 50.9793 70.9052 49.94C69.5528 48.9006 68.9276 47.523 68.4353 46.4331C67.8863 45.2245 67.5435 44.5269 66.7291 44.2896C65.8812 44.0413 65.0986 44.4676 63.8926 45.1828C62.7336 45.8695 61.4203 46.6484 59.6276 46.7957C57.8346 46.9428 56.3964 46.3913 55.123 45.9046C54.2947 45.5849 53.5827 45.3081 52.9488 45.3081Z" fill="#222222"/>
<path d="M51.392 66.4025C51.2494 66.4019 51.1107 66.3555 50.9966 66.2701C50.8826 66.1847 50.7994 66.0645 50.7596 65.9273C50.7197 65.7906 50.7253 65.6442 50.7755 65.5106C50.8258 65.377 50.918 65.2636 51.0382 65.1873L68.4836 54.1171C68.5568 54.069 68.6385 54.0359 68.7245 54.0198C68.8106 54.0038 68.899 54.0049 68.9844 54.0233C69.0698 54.0417 69.1509 54.0769 69.2229 54.1269C69.2949 54.1769 69.3559 54.2406 69.4029 54.3145C69.4492 54.3884 69.4809 54.4708 69.4956 54.5571C69.5108 54.6432 69.5078 54.7316 69.4883 54.8167C69.4681 54.902 69.4321 54.9824 69.3809 55.0533C69.3297 55.1243 69.265 55.1843 69.19 55.23L51.7446 66.2927C51.64 66.3616 51.5176 66.4 51.392 66.4025ZM58.3663 55.7045C57.7966 55.7039 57.2422 55.5197 56.7853 55.1794C56.3284 54.8391 55.9932 54.3607 55.8294 53.815C55.6655 53.2694 55.6818 52.6855 55.8757 52.1497C56.0696 51.614 56.4308 51.155 56.9059 50.8406C57.381 50.5262 57.9448 50.3732 58.5136 50.4042C59.0825 50.4351 59.6263 50.6485 60.0645 51.0125C60.5027 51.3766 60.812 51.8722 60.9466 52.4258C61.0812 52.9794 61.0337 53.5616 60.8119 54.0863C60.6081 54.5663 60.2675 54.9756 59.8326 55.2634C59.3977 55.5512 58.8877 55.7047 58.3663 55.7045ZM58.3717 51.7186C58.0411 51.7155 57.7209 51.8353 57.4736 52.0548C57.2262 52.2744 57.0693 52.578 57.0332 52.9067C56.9971 53.2355 57.0844 53.5659 57.2782 53.8339C57.472 54.1019 57.7585 54.2883 58.082 54.357C58.4055 54.4257 58.743 54.3717 59.029 54.2056C59.3149 54.0395 59.529 53.773 59.6296 53.458C59.7302 53.1429 59.7101 52.8017 59.5733 52.5006C59.4365 52.1995 59.1927 51.96 58.8892 51.8285C58.7258 51.7578 58.5499 51.7204 58.3717 51.7186ZM61.2502 71.1178C60.5895 71.1184 59.9521 70.8738 59.4624 70.4303C58.9726 69.9868 58.6656 69.3768 58.6011 68.7192C58.5367 68.0617 58.7195 67.4035 59.1139 66.8734C59.5083 66.3433 60.086 65.9791 60.7343 65.8522C61.3826 65.7248 62.0554 65.8437 62.6209 66.1853C63.1863 66.5269 63.6042 67.0674 63.7927 67.6999C63.9818 68.3331 63.9281 69.0139 63.642 69.6098C63.3565 70.2052 62.8588 70.6731 62.247 70.922C61.9304 71.0507 61.5918 71.1165 61.2502 71.1178ZM61.2502 67.1296C61.0788 67.1296 60.9085 67.1631 60.7493 67.2272C60.5462 67.3095 60.3666 67.4407 60.2263 67.6096C60.086 67.778 59.9895 67.9781 59.9451 68.1928C59.9007 68.4075 59.9099 68.6296 59.9719 68.84C60.0339 69.0505 60.1467 69.242 60.3004 69.3982C60.4541 69.5543 60.644 69.6702 60.8532 69.7361C61.0623 69.8014 61.2844 69.8142 61.4997 69.7733C61.715 69.7324 61.9169 69.6391 62.0877 69.5019C62.2585 69.364 62.3927 69.1865 62.4788 68.9852C62.5642 68.7821 62.5977 68.5612 62.5776 68.3423C62.5568 68.1233 62.4824 67.9122 62.361 67.7286C62.2396 67.545 62.0743 67.3949 61.881 67.29C61.687 67.1857 61.4704 67.1308 61.2502 67.1308V67.1296ZM86.0711 36.9132C85.9961 36.9131 85.9223 36.9004 85.8515 36.8758L45.4593 22.6164L43.7168 26.3012C43.6421 26.4593 43.5076 26.5812 43.3429 26.6402C43.1784 26.6991 42.9971 26.6902 42.839 26.6155C42.6809 26.5407 42.559 26.4062 42.5 26.2416C42.4411 26.077 42.45 25.8957 42.5247 25.7376L44.5221 21.5177C44.5919 21.3703 44.7139 21.254 44.8645 21.1913C45.0151 21.1286 45.1835 21.1239 45.3373 21.1782L86.2907 35.6321C86.4377 35.6838 86.5616 35.7858 86.6402 35.92C86.7189 36.0542 86.7482 36.212 86.722 36.3654C86.6951 36.5188 86.6158 36.658 86.4963 36.7582C86.3773 36.8585 86.2267 36.9134 86.0711 36.9132ZM40.1473 32.9591C40.0361 32.959 39.9268 32.9309 39.8293 32.8772C39.732 32.8236 39.6498 32.7462 39.5903 32.6522C39.5309 32.5583 39.4962 32.4508 39.4895 32.3398C39.4827 32.2289 39.5042 32.118 39.5518 32.0176L40.3846 30.2597C40.4216 30.1814 40.4736 30.1112 40.5378 30.0531C40.602 29.9949 40.6769 29.95 40.7584 29.9207C40.8399 29.8916 40.9264 29.8788 41.0129 29.883C41.0994 29.8873 41.1841 29.9085 41.2624 29.9454C41.3407 29.9825 41.4109 30.0345 41.469 30.0987C41.5272 30.1628 41.5722 30.2378 41.6013 30.3193C41.6305 30.4008 41.6434 30.4873 41.6391 30.5737C41.6349 30.6602 41.6136 30.745 41.5766 30.8233L40.7438 32.5811C40.6905 32.6942 40.606 32.7898 40.5005 32.8567C40.3948 32.9237 40.2723 32.9592 40.1473 32.9591ZM99.8254 44.0808C99.7424 44.0805 99.6607 44.0649 99.5832 44.0347C99.421 43.9705 99.2904 43.8444 99.2209 43.6842C99.1513 43.5239 99.1483 43.3425 99.2123 43.1799L99.7613 41.7846L93.1697 39.4577C93.0044 39.3993 92.8696 39.278 92.7939 39.1202C92.7189 38.9623 92.7091 38.781 92.7671 38.6161C92.8256 38.4512 92.947 38.3162 93.105 38.2407C93.2624 38.1653 93.4442 38.1557 93.6089 38.214L100.842 40.7695C100.925 40.799 101.001 40.845 101.067 40.9048C101.132 40.9645 101.184 41.0368 101.221 41.1172C101.258 41.1978 101.278 41.2847 101.28 41.3732C101.283 41.4616 101.267 41.5496 101.234 41.6319L100.438 43.66C100.39 43.7837 100.306 43.89 100.197 43.9651C100.087 44.0402 99.9578 44.0805 99.8254 44.0808Z" fill="#222222"/>
<path d="M94.3594 39.2123L100.623 30.0012L102.782 34.5969L96.7701 40.0627L94.3594 39.2123Z" fill="white"/>
</svg>
