<svg width="24" height="24" viewBox="0 0 24 24" fill="none" xmlns="http://www.w3.org/2000/svg">
<path fill-rule="evenodd" clip-rule="evenodd" d="M14.192 15.606C12.7747 16.6658 11.0085 17.1495 9.24899 16.9596C7.48945 16.7697 5.86714 15.9204 4.70855 14.5826C3.54996 13.2448 2.9411 11.5179 3.0045 9.74924C3.0679 7.98062 3.79885 6.30166 5.05026 5.05026C6.30166 3.79885 7.98062 3.0679 9.74924 3.0045C11.5179 2.9411 13.2448 3.54996 14.5826 4.70855C15.9204 5.86714 16.7697 7.48945 16.9596 9.24899C17.1495 11.0085 16.6658 12.7747 15.606 14.192L20.778 19.364C20.9602 19.5526 21.061 19.8052 21.0587 20.0674C21.0564 20.3296 20.9512 20.5804 20.7658 20.7658C20.5804 20.9512 20.3296 21.0564 20.0674 21.0587C19.8052 21.061 19.5526 20.9602 19.364 20.778L14.192 15.606ZM15 10C15 11.3261 14.4732 12.5979 13.5355 13.5355C12.5979 14.4732 11.3261 15 10 15C8.67392 15 7.40215 14.4732 6.46447 13.5355C5.52678 12.5979 5 11.3261 5 10C5 8.67392 5.52678 7.40215 6.46447 6.46447C7.40215 5.52678 8.67392 5 10 5C11.3261 5 12.5979 5.52678 13.5355 6.46447C14.4732 7.40215 15 8.67392 15 10Z" fill="#979797" stroke="#FFFCFB" stroke-width="0.3"/>
</svg>
