<svg width="36" height="36" viewBox="0 0 36 36" fill="none" xmlns="http://www.w3.org/2000/svg">
<g clip-path="url(#clip0_1315_589)">
<path d="M18.0003 35.1429C27.468 35.1429 35.1431 27.4678 35.1431 18C35.1431 8.5323 27.468 0.857178 18.0003 0.857178C8.53254 0.857178 0.857422 8.5323 0.857422 18C0.857422 27.4678 8.53254 35.1429 18.0003 35.1429Z" fill="#3C5A9A"/>
<path d="M23.5741 6.11914H19.7765C17.5229 6.11914 15.0163 7.06697 15.0163 10.3337C15.0273 11.4719 15.0163 12.562 15.0163 13.7888H12.4092V17.9375H15.097V29.8809H20.0359V17.8587H23.2958L23.5907 13.7772H19.9508C19.9508 13.7772 19.959 11.9616 19.9508 11.4343C19.9508 10.1434 21.2941 10.2173 21.3749 10.2173C22.0141 10.2173 23.2569 10.2192 23.576 10.2173V6.11914H23.5741Z" fill="white"/>
</g>
<defs>
<clipPath id="clip0_1315_589">
<rect width="34.2857" height="34.2857" fill="white" transform="translate(0.857422 0.857178)"/>
</clipPath>
</defs>
</svg>
