<svg width="36" height="37" viewBox="0 0 36 37" fill="none" xmlns="http://www.w3.org/2000/svg">
<g clip-path="url(#clip0_1315_582)">
<path d="M35.1251 18.6197C35.1251 17.1565 35.0084 16.0887 34.756 14.9814H18.3418V21.5856H27.9766C27.7824 23.2268 26.7334 25.6985 24.4024 27.3593L24.3697 27.5804L29.5596 31.673L29.9191 31.7095C33.2213 28.6051 35.1251 24.0375 35.1251 18.6197Z" fill="#4285F4"/>
<path d="M18.3414 36.0201C23.0617 36.0201 27.0243 34.4381 29.9188 31.7095L24.402 27.3594C22.9257 28.4073 20.9443 29.1389 18.3414 29.1389C13.7183 29.1389 9.79446 26.0347 8.39573 21.7439L8.1907 21.7616L2.79421 26.0128L2.72363 26.2125C5.59851 32.0258 11.5038 36.0201 18.3414 36.0201Z" fill="#34A853"/>
<path d="M8.39623 21.744C8.02716 20.6367 7.81357 19.4503 7.81357 18.2244C7.81357 16.9984 8.02716 15.812 8.37681 14.7048L8.36704 14.4689L2.90291 10.1494L2.72414 10.236C1.53926 12.6483 0.859375 15.3573 0.859375 18.2244C0.859375 21.0915 1.53926 23.8003 2.72414 26.2127L8.39623 21.744Z" fill="#FBBC05"/>
<path d="M18.3414 7.30946C21.6242 7.30946 23.8386 8.75289 25.1013 9.95914L30.0353 5.05538C27.0051 2.18828 23.0617 0.428467 18.3414 0.428467C11.5038 0.428467 5.59851 4.42261 2.72363 10.2359L8.37631 14.7046C9.79447 10.4139 13.7183 7.30946 18.3414 7.30946Z" fill="#EB4335"/>
</g>
<defs>
<clipPath id="clip0_1315_582">
<rect width="34.2857" height="35.7143" fill="white" transform="translate(0.857422 0.428467)"/>
</clipPath>
</defs>
</svg>
