<svg width="20" height="20" viewBox="0 0 20 20" fill="none" xmlns="http://www.w3.org/2000/svg">
<g clip-path="url(#clip0_777_701)">
<path d="M17.7156 2.47063C16.6269 1.28 15.175 0.625 13.6269 0.625C12.2887 0.625 11.0219 1.115 10 2.01688C8.97812 1.115 7.71125 0.625 6.37312 0.625C4.825 0.625 3.37313 1.28 2.28437 2.47063C0.071875 4.88937 0.071875 8.82438 2.28437 11.2431L9.53813 19.1725C9.65687 19.3013 9.82438 19.375 10 19.375C10.1756 19.375 10.3431 19.3013 10.4619 19.1719L17.7156 11.2425C19.9281 8.82438 19.9281 4.88937 17.7156 2.47063ZM16.7919 10.3994L10 17.8237L3.2075 10.3994C1.42062 8.44625 1.42062 5.2675 3.2075 3.31437C4.05687 2.38563 5.18062 1.875 6.37312 1.875C7.56562 1.875 8.68937 2.38563 9.53813 3.31375C9.775 3.5725 10.2244 3.5725 10.4619 3.31375C11.3106 2.38563 12.4344 1.875 13.6269 1.875C14.8194 1.875 15.9438 2.38563 16.7925 3.31375C18.5794 5.2675 18.5794 8.44625 16.7919 10.3994Z" fill="#838383" stroke="#838383" stroke-width="0.2"/>
<path d="M15 8.125H13.4375L11.75 5.875C11.62 5.70187 11.4119 5.60875 11.1937 5.6275C10.9781 5.64687 10.7881 5.77687 10.6906 5.97062L8.64313 10.0662L7.375 8.375C7.25688 8.2175 7.07188 8.125 6.875 8.125H5C4.655 8.125 4.375 8.405 4.375 8.75C4.375 9.095 4.655 9.375 5 9.375H6.5625L8.25 11.625C8.36875 11.7831 8.55438 11.875 8.75 11.875C8.76875 11.875 8.7875 11.8744 8.80625 11.8725C9.02187 11.8531 9.21188 11.7231 9.30938 11.5294L11.3569 7.43375L12.625 9.125C12.7425 9.2825 12.9281 9.375 13.125 9.375H15C15.345 9.375 15.625 9.095 15.625 8.75C15.625 8.405 15.345 8.125 15 8.125Z" fill="#838383"/>
</g>
<defs>
<clipPath id="clip0_777_701">
<rect width="20" height="20" fill="white"/>
</clipPath>
</defs>
</svg>
