<svg width="20" height="20" viewBox="0 0 20 20" fill="none" xmlns="http://www.w3.org/2000/svg">
<g clip-path="url(#clip0_998_3073)">
<path d="M15.8513 15.8513C17.4032 14.2994 18.275 12.1947 18.275 10C18.275 7.80533 17.4032 5.70055 15.8513 4.14869C14.2994 2.59683 12.1947 1.725 10 1.725C7.80533 1.725 5.70055 2.59683 4.14869 4.14869C2.59683 5.70055 1.725 7.80533 1.725 10C1.725 12.1947 2.59683 14.2994 4.14869 15.8513C5.70055 17.4032 7.80533 18.275 10 18.275C12.1947 18.275 14.2994 17.4032 15.8513 15.8513ZM19.85 10C19.85 12.6124 18.8122 15.1178 16.965 16.965C15.1178 18.8122 12.6124 19.85 10 19.85C7.38762 19.85 4.88223 18.8122 3.035 16.965C1.18777 15.1178 0.15 12.6124 0.15 10C0.15 7.38762 1.18777 4.88223 3.035 3.035C4.88223 1.18777 7.38762 0.15 10 0.15C12.6124 0.15 15.1178 1.18777 16.965 3.035C18.8122 4.88223 19.85 7.38762 19.85 10ZM8.6836 13.3683C8.66164 13.3327 8.65 13.2918 8.65 13.25V7.25C8.65 7.20821 8.66164 7.16725 8.6836 7.13171C8.70557 7.09617 8.737 7.06744 8.77438 7.04875C8.81175 7.03007 8.85359 7.02216 8.89521 7.02591C8.93682 7.02966 8.97657 7.04493 9.01 7.07L13.01 10.07C13.0379 10.091 13.0606 10.1181 13.0762 10.1494C13.0919 10.1806 13.1 10.2151 13.1 10.25C13.1 10.2849 13.0919 10.3194 13.0762 10.3506C13.0606 10.3819 13.0379 10.409 13.01 10.43L9.01 13.43C8.97657 13.4551 8.93682 13.4703 8.89521 13.4741C8.85359 13.4778 8.81175 13.4699 8.77438 13.4512C8.737 13.4326 8.70557 13.4038 8.6836 13.3683Z" fill="#FFFCFB" stroke="#DCA675" stroke-width="0.3"/>
</g>
<defs>
<clipPath id="clip0_998_3073">
<rect width="20" height="20" fill="white"/>
</clipPath>
</defs>
</svg>
