<svg width="24" height="24" viewBox="0 0 24 24" fill="none" xmlns="http://www.w3.org/2000/svg">
<path d="M18.1001 6.00035C18.1018 5.75691 18.0226 5.51981 17.875 5.32619C17.7274 5.13248 17.5196 4.99325 17.2843 4.93034C17.049 4.86742 16.7995 4.88438 16.5749 4.97856C16.3503 5.07268 16.1634 5.23862 16.0433 5.45037C15.9246 5.65606 15.7293 5.80648 15.5002 5.86883C15.2708 5.93121 15.0262 5.90037 14.8195 5.78304L14.7701 5.87L14.8197 5.78313C14.7165 5.72433 14.6261 5.64571 14.5534 5.5518C14.4808 5.45789 14.4275 5.35054 14.3966 5.23593C14.3656 5.12132 14.3576 5.00173 14.3731 4.88403C14.3886 4.76633 14.4272 4.65285 14.4867 4.55013L14.4867 4.55C14.7412 4.10921 15.1072 3.74317 15.548 3.48864C15.9888 3.23412 16.4888 3.10008 16.9978 3.1C17.5067 3.09992 18.0068 3.23379 18.4476 3.48818C18.8885 3.74256 19.2546 4.10849 19.5092 4.5492C19.7639 4.9899 19.898 5.48986 19.8982 5.99884C19.8984 6.50781 19.7647 7.00788 19.5104 7.44879C19.2561 7.8897 18.8903 8.25592 18.4496 8.51066C18.009 8.7654 17.5091 8.89967 17.0001 8.9C16.7614 8.89998 16.5325 8.80516 16.3637 8.6364C16.195 8.46761 16.1001 8.23869 16.1001 8C16.1001 7.7613 16.195 7.53239 16.3637 7.3636C16.5325 7.19482 16.7614 7.1 17.0001 7.1C17.2919 7.1 17.5717 6.98411 17.778 6.77782C17.9842 6.57161 18.1 6.29196 18.1001 6.00035ZM18.1001 6.00035C18.1001 6.00023 18.1001 6.00012 18.1001 6H18.0001L18.1001 6.0007C18.1001 6.00058 18.1001 6.00047 18.1001 6.00035ZM5.16872 20.1L5.33943 19.9293L5.98922 19.2795L5.16872 20.1ZM5.16872 20.1H5.41014M5.16872 20.1H5.41014M5.41014 20.1H11.0001M5.41014 20.1H11.0001M10.9999 5.9L11.0001 5.9C11.2388 5.9 11.4678 5.80518 11.6365 5.6364C11.8053 5.46761 11.9001 5.23869 11.9001 5C11.9001 4.7613 11.8053 4.53239 11.6365 4.3636C11.4678 4.19487 11.239 4.10006 11.0004 4.1C9.32844 4.10701 7.69231 4.58482 6.2794 5.4787C4.86643 6.37262 3.73384 7.64647 3.01139 9.15433C2.28894 10.6622 2.00584 12.3431 2.19455 14.0044C2.38325 15.6657 3.03611 17.2402 4.07833 18.5477L4.13453 18.6182L4.07022 18.6813L2.36132 20.3602C2.36114 20.3604 2.36097 20.3606 2.36079 20.3608C2.2362 20.4873 2.15179 20.6478 2.11821 20.8221C2.08457 20.9967 2.1034 21.1773 2.17232 21.3412L2.17264 21.342C2.24016 21.5064 2.35482 21.6471 2.50216 21.7464C2.64941 21.8456 2.82272 21.899 3.00027 21.9C3.00039 21.9 3.00052 21.9 3.00064 21.9L11.0002 21.9C13.1673 21.9003 15.26 21.1099 16.8858 19.677C18.5117 18.2442 19.5588 16.2674 19.8309 14.1174L19.8311 14.1161C19.8476 13.9985 19.8406 13.8787 19.8105 13.7638C19.7804 13.6488 19.7279 13.541 19.656 13.4464C19.584 13.3519 19.494 13.2725 19.3913 13.2129C19.2885 13.1533 19.1749 13.1146 19.0571 13.0991C18.8209 13.0685 18.5822 13.1328 18.3933 13.2778C18.2045 13.4228 18.0808 13.6367 18.0493 13.8727C18.0493 13.8729 18.0493 13.873 18.0493 13.8732L17.9501 13.86C17.7403 15.5552 16.9179 17.1151 15.6378 18.246L10.9999 5.9ZM10.9999 5.9C9.59849 5.90389 8.2296 6.32241 7.06564 7.10283C5.90168 7.88325 4.99469 8.99067 4.45893 10.2856C3.92318 11.5805 3.78261 13.005 4.05494 14.3797C4.32726 15.7543 5.00028 17.0176 5.98922 18.0105C6.15685 18.1791 6.25093 18.4072 6.25093 18.645C6.25093 18.8827 6.15692 19.1107 5.98943 19.2793L10.9999 5.9ZM11.0001 20.1C11.0001 20.1 11.0001 20.1 11.0001 20.1H11.0001ZM16.1705 10.6428L16.1706 10.6429L16.1727 10.6379C16.2161 10.5318 16.2792 10.4351 16.3589 10.3528L16.4961 10.2338L16.6585 10.1526L16.8247 10.0972C16.9777 10.0712 17.1346 10.0853 17.2801 10.1376V10.1448L17.3393 10.1713C17.5572 10.2687 17.7314 10.443 17.8289 10.6608L17.8288 10.6608L17.8297 10.6627C17.879 10.7672 17.9031 10.8819 17.9002 10.9974L17.9001 10.9974V11C17.9001 11.2387 17.8053 11.4676 17.6365 11.6364C17.4678 11.8052 17.2388 11.9 17.0001 11.9L16.9996 11.9C16.8811 11.9007 16.7637 11.878 16.654 11.8332C16.5444 11.7884 16.4447 11.7224 16.3606 11.639L16.36 11.6384C16.2761 11.5566 16.2091 11.4593 16.1626 11.3518C16.1187 11.2406 16.0975 11.1217 16.1001 11.0022L16.1004 11.0022L16.1 10.9952C16.0942 10.8737 16.1184 10.7527 16.1705 10.6428Z" fill="#838383" stroke="#FFFCFB" stroke-width="0.2"/>
</svg>
