<svg width="390" height="844" viewBox="0 0 390 844" fill="none" xmlns="http://www.w3.org/2000/svg">
<g clip-path="url(#clip0_998_1714)">
<rect width="390" height="844" fill="#FFFCFB"/>
<rect x="-87" width="575" height="844" rx="40" fill="#F68945"/>
<g clip-path="url(#clip1_998_1714)">
<path d="M361.186 160.962C360.899 160.76 360.618 160.55 360.343 160.333C360.306 160.304 360.275 160.268 360.253 160.228C360.23 160.187 360.215 160.142 360.21 160.096C360.204 160.049 360.208 160.002 360.221 159.957C360.233 159.912 360.255 159.87 360.284 159.834C360.313 159.797 360.349 159.766 360.389 159.744C360.43 159.721 360.475 159.706 360.521 159.701C360.568 159.695 360.615 159.699 360.66 159.712C360.705 159.724 360.747 159.746 360.783 159.775C361.049 159.984 361.32 160.186 361.596 160.381C361.634 160.408 361.667 160.442 361.692 160.482C361.716 160.521 361.733 160.565 361.741 160.611C361.749 160.657 361.748 160.704 361.738 160.75C361.727 160.795 361.708 160.838 361.681 160.877C361.654 160.915 361.62 160.947 361.58 160.972C361.541 160.997 361.497 161.014 361.451 161.022C361.405 161.03 361.358 161.028 361.312 161.018C361.267 161.008 361.224 160.989 361.186 160.962ZM358.843 159.087C357.472 157.854 356.237 156.478 355.159 154.982C355.106 154.905 355.085 154.811 355.1 154.719C355.116 154.627 355.167 154.544 355.243 154.49C355.319 154.435 355.413 154.413 355.505 154.427C355.597 154.441 355.68 154.491 355.736 154.566C356.784 156.02 357.985 157.359 359.318 158.558C359.389 158.621 359.431 158.709 359.436 158.803C359.441 158.897 359.408 158.99 359.345 159.06C359.282 159.13 359.194 159.172 359.1 159.177C359.005 159.182 358.913 159.15 358.843 159.087ZM399.528 157.797C398.444 159.232 397.23 160.564 395.902 161.777C395.868 161.809 395.84 161.847 395.82 161.889C395.8 161.931 395.789 161.977 395.787 162.024C395.785 162.07 395.792 162.117 395.808 162.161C395.824 162.205 395.848 162.245 395.879 162.28C395.911 162.314 395.949 162.342 395.991 162.362C396.034 162.382 396.079 162.393 396.126 162.395C396.173 162.397 396.219 162.39 396.263 162.374C396.307 162.358 396.347 162.334 396.382 162.302C397.742 161.06 398.985 159.695 400.096 158.226C400.153 158.15 400.178 158.055 400.164 157.962C400.151 157.868 400.102 157.784 400.026 157.727C399.951 157.67 399.856 157.646 399.763 157.659C399.669 157.672 399.585 157.722 399.528 157.797ZM394.449 163.019C394.195 163.227 393.937 163.429 393.674 163.625C393.467 163.751 393.467 163.972 393.569 164.125C393.671 164.278 393.874 164.362 394.072 164.214C394.353 164.006 394.629 163.791 394.899 163.569C394.935 163.54 394.965 163.503 394.987 163.462C395.009 163.421 395.023 163.376 395.028 163.33C395.032 163.283 395.028 163.236 395.014 163.192C395.001 163.147 394.978 163.105 394.949 163.069C394.919 163.033 394.883 163.003 394.842 162.981C394.801 162.959 394.755 162.945 394.709 162.941C394.663 162.936 394.616 162.941 394.571 162.954C394.526 162.968 394.485 162.99 394.449 163.019ZM352.111 122.686C353.164 121.233 354.348 119.879 355.648 118.642C355.681 118.609 355.708 118.571 355.727 118.528C355.746 118.486 355.757 118.44 355.758 118.393C355.759 118.346 355.751 118.3 355.734 118.256C355.717 118.213 355.692 118.173 355.66 118.139C355.628 118.105 355.589 118.078 355.546 118.059C355.504 118.04 355.458 118.03 355.411 118.029C355.364 118.028 355.318 118.036 355.274 118.052C355.231 118.069 355.191 118.094 355.157 118.127C353.826 119.394 352.613 120.781 351.535 122.269C351.508 122.307 351.488 122.35 351.477 122.396C351.467 122.441 351.465 122.488 351.472 122.534C351.48 122.58 351.496 122.625 351.521 122.664C351.545 122.704 351.577 122.739 351.615 122.766C351.653 122.793 351.696 122.813 351.741 122.824C351.787 122.835 351.834 122.836 351.88 122.829C351.926 122.822 351.97 122.805 352.01 122.781C352.05 122.756 352.084 122.724 352.111 122.686ZM357.073 117.371C357.331 117.15 357.601 116.935 357.855 116.735C357.93 116.676 357.977 116.591 357.989 116.497C358 116.403 357.973 116.309 357.915 116.235C357.856 116.161 357.771 116.113 357.677 116.102C357.584 116.091 357.489 116.118 357.415 116.176C357.155 116.381 356.878 116.602 356.61 116.831C356.575 116.861 356.546 116.899 356.525 116.94C356.504 116.982 356.491 117.027 356.487 117.074C356.484 117.12 356.489 117.167 356.504 117.212C356.518 117.256 356.541 117.297 356.572 117.332C356.602 117.368 356.639 117.397 356.681 117.418C356.723 117.439 356.768 117.452 356.815 117.456C356.861 117.459 356.908 117.454 356.952 117.439C356.997 117.425 357.038 117.401 357.073 117.371Z" fill="#EDDDD8"/>
<path d="M376 112.048C360.588 112.048 348.049 124.588 348.049 140C348.049 155.413 360.588 167.952 376 167.952C391.413 167.952 403.952 155.413 403.952 140C403.952 124.588 391.413 112.048 376 112.048ZM376 167.241C360.98 167.241 348.76 155.021 348.76 140C348.76 124.98 360.98 112.76 376 112.76C391.021 112.76 403.241 124.98 403.241 140C403.241 155.021 391.021 167.241 376 167.241Z" fill="#EDDDD8"/>
<path d="M360.702 126.14C359.286 126.14 358.135 127.291 358.135 128.706C358.135 130.122 359.286 131.274 360.702 131.274C362.117 131.274 363.269 130.122 363.269 128.706C363.269 127.291 362.117 126.14 360.702 126.14ZM360.702 130.562C359.679 130.562 358.846 129.73 358.846 128.706C358.846 127.683 359.679 126.851 360.702 126.851C361.725 126.851 362.557 127.683 362.557 128.706C362.557 129.73 361.725 130.562 360.702 130.562ZM378.22 119.261C376.805 119.261 375.653 120.412 375.653 121.828C375.653 123.243 376.805 124.395 378.22 124.395C379.635 124.395 380.787 123.243 380.787 121.828C380.787 120.412 379.636 119.261 378.22 119.261ZM378.22 123.683C377.197 123.683 376.364 122.851 376.364 121.828C376.364 120.804 377.197 119.972 378.22 119.972C379.243 119.972 380.076 120.804 380.076 121.828C380.076 122.851 379.244 123.683 378.22 123.683ZM382.839 140.527C381.424 140.527 380.272 141.679 380.272 143.094C380.272 144.51 381.424 145.661 382.839 145.661C384.254 145.661 385.406 144.51 385.406 143.094C385.406 141.679 384.254 140.527 382.839 140.527ZM382.839 144.95C381.816 144.95 380.984 144.117 380.984 143.094C380.984 142.071 381.816 141.238 382.839 141.238C383.862 141.238 384.695 142.071 384.695 143.094C384.695 144.117 383.862 144.95 382.839 144.95ZM373.745 136.46C373.745 135.045 372.593 133.893 371.178 133.893C369.763 133.893 368.611 135.045 368.611 136.46C368.611 137.876 369.763 139.027 371.178 139.027C372.593 139.027 373.745 137.876 373.745 136.46ZM369.322 136.46C369.322 135.437 370.155 134.605 371.178 134.605C372.201 134.605 373.034 135.437 373.034 136.46C373.034 137.483 372.201 138.316 371.178 138.316C370.155 138.316 369.322 137.483 369.322 136.46ZM387.262 151.136C385.846 151.136 384.695 152.288 384.695 153.703C384.695 155.118 385.846 156.27 387.262 156.27C388.677 156.27 389.829 155.118 389.829 153.703C389.829 152.288 388.677 151.136 387.262 151.136ZM387.262 155.559C386.238 155.559 385.406 154.726 385.406 153.703C385.406 152.68 386.238 151.847 387.262 151.847C388.285 151.847 389.118 152.68 389.118 153.703C389.118 154.726 388.285 155.559 387.262 155.559ZM389.473 126.14C388.058 126.14 386.906 127.291 386.906 128.706C386.906 130.122 388.058 131.274 389.473 131.274C390.888 131.274 392.04 130.122 392.04 128.706C392.04 127.291 390.888 126.14 389.473 126.14ZM389.473 130.562C388.45 130.562 387.617 129.73 387.617 128.706C387.617 127.683 388.45 126.851 389.473 126.851C390.496 126.851 391.329 127.683 391.329 128.706C391.329 129.73 390.496 130.562 389.473 130.562ZM396.486 143.859C395.071 143.859 393.919 145.01 393.919 146.426C393.919 147.841 395.071 148.993 396.486 148.993C397.901 148.993 399.053 147.841 399.053 146.426C399.053 145.01 397.901 143.859 396.486 143.859ZM396.486 148.282C395.463 148.282 394.63 147.449 394.63 146.426C394.63 145.403 395.462 144.57 396.486 144.57C397.509 144.57 398.341 145.402 398.341 146.426C398.341 147.449 397.509 148.282 396.486 148.282ZM358.927 138.316C357.512 138.316 356.36 139.467 356.36 140.883C356.36 142.298 357.512 143.45 358.927 143.45C360.343 143.45 361.494 142.298 361.494 140.883C361.494 139.467 360.343 138.316 358.927 138.316ZM358.927 142.739C357.904 142.739 357.072 141.906 357.072 140.883C357.072 139.86 357.904 139.027 358.927 139.027C359.951 139.027 360.783 139.859 360.783 140.883C360.783 141.906 359.951 142.739 358.927 142.739ZM372.458 154.468C371.043 154.468 369.891 155.619 369.891 157.035C369.891 158.45 371.043 159.601 372.458 159.601C373.874 159.601 375.025 158.45 375.025 157.035C375.025 155.619 373.874 154.468 372.458 154.468ZM372.458 158.89C371.435 158.89 370.603 158.058 370.603 157.035C370.603 156.011 371.435 155.179 372.458 155.179C373.482 155.179 374.314 156.011 374.314 157.035C374.314 158.058 373.482 158.89 372.458 158.89Z" fill="#EDDDD8"/>
</g>
<g clip-path="url(#clip2_998_1714)">
<path d="M81.1855 318.962C80.899 318.76 80.6179 318.55 80.3426 318.333C80.3059 318.304 80.2753 318.268 80.2525 318.228C80.2297 318.187 80.2152 318.142 80.2097 318.096C80.2043 318.049 80.208 318.002 80.2207 317.957C80.2334 317.912 80.2549 317.87 80.2838 317.834C80.3127 317.797 80.3486 317.766 80.3893 317.744C80.4301 317.721 80.475 317.706 80.5213 317.701C80.5677 317.695 80.6147 317.699 80.6597 317.712C80.7046 317.724 80.7466 317.746 80.7832 317.775C81.0488 317.984 81.3199 318.186 81.5961 318.381C81.6342 318.408 81.6667 318.442 81.6916 318.482C81.7165 318.521 81.7334 318.565 81.7413 318.611C81.7492 318.657 81.7479 318.704 81.7376 318.75C81.7273 318.795 81.7081 318.838 81.6812 318.877C81.6542 318.915 81.62 318.947 81.5805 318.972C81.541 318.997 81.497 319.014 81.4509 319.022C81.4049 319.03 81.3578 319.028 81.3123 319.018C81.2667 319.008 81.2236 318.989 81.1855 318.962ZM78.843 317.087C77.4721 315.854 76.2371 314.478 75.1592 312.982C75.1058 312.905 75.0847 312.811 75.1004 312.719C75.1161 312.627 75.1673 312.544 75.2431 312.49C75.3188 312.435 75.413 312.413 75.5052 312.427C75.5975 312.441 75.6805 312.491 75.7362 312.566C76.7844 314.02 77.9853 315.359 79.3184 316.558C79.3885 316.621 79.4307 316.709 79.4358 316.803C79.4408 316.897 79.4082 316.99 79.3452 317.06C79.2821 317.13 79.1938 317.172 79.0997 317.177C79.0055 317.182 78.9132 317.15 78.843 317.087ZM119.528 315.797C118.444 317.232 117.23 318.564 115.902 319.777C115.868 319.809 115.84 319.847 115.82 319.889C115.8 319.931 115.789 319.977 115.787 320.024C115.785 320.07 115.792 320.117 115.808 320.161C115.824 320.205 115.848 320.245 115.879 320.28C115.911 320.314 115.949 320.342 115.991 320.362C116.034 320.382 116.079 320.393 116.126 320.395C116.173 320.397 116.219 320.39 116.263 320.374C116.307 320.358 116.347 320.334 116.382 320.302C117.742 319.06 118.985 317.695 120.096 316.226C120.153 316.15 120.178 316.055 120.164 315.962C120.151 315.868 120.102 315.784 120.026 315.727C119.951 315.67 119.856 315.646 119.763 315.659C119.669 315.672 119.585 315.722 119.528 315.797ZM114.449 321.019C114.195 321.227 113.937 321.429 113.674 321.625C113.467 321.751 113.467 321.972 113.569 322.125C113.671 322.278 113.874 322.362 114.072 322.214C114.353 322.006 114.629 321.791 114.899 321.569C114.935 321.54 114.965 321.503 114.987 321.462C115.009 321.421 115.023 321.376 115.028 321.33C115.032 321.283 115.028 321.236 115.014 321.192C115.001 321.147 114.978 321.105 114.949 321.069C114.919 321.033 114.883 321.003 114.842 320.981C114.801 320.959 114.755 320.945 114.709 320.941C114.663 320.936 114.616 320.941 114.571 320.954C114.526 320.968 114.485 320.99 114.449 321.019ZM72.1114 280.686C73.1642 279.233 74.3478 277.879 75.6475 276.642C75.6814 276.609 75.7085 276.571 75.7274 276.528C75.7463 276.486 75.7567 276.44 75.7578 276.393C75.759 276.346 75.7509 276.3 75.7341 276.256C75.7173 276.213 75.6921 276.173 75.6599 276.139C75.6277 276.105 75.5892 276.078 75.5465 276.059C75.5038 276.04 75.4578 276.03 75.4111 276.029C75.3644 276.028 75.318 276.036 75.2744 276.052C75.2309 276.069 75.191 276.094 75.1572 276.127C73.8258 277.394 72.6134 278.781 71.5353 280.269C71.5079 280.307 71.4882 280.35 71.4774 280.396C71.4666 280.441 71.4649 280.488 71.4723 280.534C71.4797 280.58 71.4961 280.625 71.5206 280.664C71.5451 280.704 71.5771 280.739 71.615 280.766C71.6528 280.793 71.6957 280.813 71.7411 280.824C71.7865 280.835 71.8336 280.836 71.8797 280.829C71.9258 280.822 71.97 280.805 72.0098 280.781C72.0495 280.756 72.0841 280.724 72.1114 280.686ZM77.0732 275.371C77.3308 275.15 77.6014 274.935 77.8555 274.735C77.9296 274.676 77.9774 274.591 77.9886 274.497C77.9997 274.403 77.9731 274.309 77.9148 274.235C77.8564 274.161 77.771 274.113 77.6773 274.102C77.5837 274.091 77.4894 274.118 77.4154 274.176C77.1553 274.381 76.8778 274.602 76.6104 274.831C76.5749 274.861 76.5458 274.899 76.5247 274.94C76.5035 274.982 76.4908 275.027 76.4872 275.074C76.4837 275.12 76.4893 275.167 76.5038 275.212C76.5183 275.256 76.5414 275.297 76.5718 275.332C76.6022 275.368 76.6393 275.397 76.6809 275.418C76.7226 275.439 76.768 275.452 76.8145 275.456C76.8611 275.459 76.9079 275.454 76.9523 275.439C76.9967 275.425 77.0378 275.401 77.0732 275.371Z" fill="#EDDDD8"/>
<path d="M96.0005 270.048C80.5879 270.048 68.0488 282.588 68.0488 298C68.0488 313.413 80.5879 325.952 96.0005 325.952C111.413 325.952 123.952 313.413 123.952 298C123.952 282.588 111.413 270.048 96.0005 270.048ZM96.0005 325.241C80.98 325.241 68.7601 313.021 68.7601 298C68.7601 282.98 80.98 270.76 96.0005 270.76C111.021 270.76 123.241 282.98 123.241 298C123.241 313.021 111.021 325.241 96.0005 325.241Z" fill="#EDDDD8"/>
<path d="M80.7018 284.14C79.2864 284.14 78.1347 285.291 78.1347 286.706C78.1347 288.122 79.2864 289.274 80.7018 289.274C82.1172 289.274 83.2686 288.122 83.2686 286.706C83.2686 285.291 82.1171 284.14 80.7018 284.14ZM80.7018 288.562C79.6786 288.562 78.846 287.73 78.846 286.706C78.846 285.683 79.6786 284.851 80.7018 284.851C81.725 284.851 82.5574 285.683 82.5574 286.706C82.5573 287.73 81.725 288.562 80.7018 288.562ZM98.2203 277.261C96.8048 277.261 95.6532 278.412 95.6532 279.828C95.6532 281.243 96.8048 282.395 98.2203 282.395C99.6355 282.395 100.787 281.243 100.787 279.828C100.787 278.412 99.6356 277.261 98.2203 277.261ZM98.2203 281.683C97.1971 281.683 96.3645 280.851 96.3645 279.828C96.3645 278.804 97.1971 277.972 98.2203 277.972C99.2435 277.972 100.076 278.804 100.076 279.828C100.076 280.851 99.2436 281.683 98.2203 281.683ZM102.839 298.527C101.424 298.527 100.272 299.679 100.272 301.094C100.272 302.51 101.424 303.661 102.839 303.661C104.254 303.661 105.406 302.51 105.406 301.094C105.406 299.679 104.254 298.527 102.839 298.527ZM102.839 302.95C101.816 302.95 100.984 302.117 100.984 301.094C100.984 300.071 101.816 299.238 102.839 299.238C103.862 299.238 104.695 300.071 104.695 301.094C104.695 302.117 103.862 302.95 102.839 302.95ZM93.745 294.46C93.745 293.045 92.5934 291.893 91.1779 291.893C89.7625 291.893 88.6111 293.045 88.6111 294.46C88.6111 295.876 89.7626 297.027 91.1779 297.027C92.5932 297.027 93.745 295.876 93.745 294.46ZM89.3223 294.46C89.3223 293.437 90.1546 292.605 91.1779 292.605C92.2012 292.605 93.0337 293.437 93.0337 294.46C93.0337 295.483 92.2011 296.316 91.1779 296.316C90.1547 296.316 89.3223 295.483 89.3223 294.46ZM107.262 309.136C105.846 309.136 104.695 310.288 104.695 311.703C104.695 313.118 105.846 314.27 107.262 314.27C108.677 314.27 109.829 313.118 109.829 311.703C109.829 310.288 108.677 309.136 107.262 309.136ZM107.262 313.559C106.238 313.559 105.406 312.726 105.406 311.703C105.406 310.68 106.238 309.847 107.262 309.847C108.285 309.847 109.118 310.68 109.118 311.703C109.118 312.726 108.285 313.559 107.262 313.559ZM109.473 284.14C108.058 284.14 106.906 285.291 106.906 286.706C106.906 288.122 108.058 289.274 109.473 289.274C110.888 289.274 112.04 288.122 112.04 286.706C112.04 285.291 110.888 284.14 109.473 284.14ZM109.473 288.562C108.45 288.562 107.617 287.73 107.617 286.706C107.617 285.683 108.45 284.851 109.473 284.851C110.496 284.851 111.329 285.683 111.329 286.706C111.329 287.73 110.496 288.562 109.473 288.562ZM116.486 301.859C115.071 301.859 113.919 303.01 113.919 304.426C113.919 305.841 115.071 306.993 116.486 306.993C117.901 306.993 119.053 305.841 119.053 304.426C119.053 303.01 117.901 301.859 116.486 301.859ZM116.486 306.282C115.463 306.282 114.63 305.449 114.63 304.426C114.63 303.403 115.462 302.57 116.486 302.57C117.509 302.57 118.341 303.402 118.341 304.426C118.341 305.449 117.509 306.282 116.486 306.282ZM78.9274 296.316C77.512 296.316 76.3604 297.467 76.3604 298.883C76.3604 300.298 77.512 301.45 78.9274 301.45C80.3428 301.45 81.4942 300.298 81.4942 298.883C81.4942 297.467 80.3428 296.316 78.9274 296.316ZM78.9274 300.739C77.9042 300.739 77.0716 299.906 77.0716 298.883C77.0716 297.86 77.9042 297.027 78.9274 297.027C79.9506 297.027 80.783 297.859 80.783 298.883C80.783 299.906 79.9506 300.739 78.9274 300.739ZM92.4584 312.468C91.043 312.468 89.8914 313.619 89.8914 315.035C89.8914 316.45 91.043 317.601 92.4584 317.601C93.8738 317.601 95.0252 316.45 95.0252 315.035C95.0253 313.619 93.8738 312.468 92.4584 312.468ZM92.4584 316.89C91.4352 316.89 90.6026 316.058 90.6026 315.035C90.6026 314.011 91.4351 313.179 92.4584 313.179C93.4816 313.179 94.314 314.011 94.314 315.035C94.314 316.058 93.4817 316.89 92.4584 316.89Z" fill="#EDDDD8"/>
</g>
<g clip-path="url(#clip3_998_1714)">
<path d="M342.186 710.962C341.899 710.76 341.618 710.55 341.343 710.333C341.306 710.304 341.275 710.268 341.253 710.228C341.23 710.187 341.215 710.142 341.21 710.096C341.204 710.049 341.208 710.002 341.221 709.957C341.233 709.912 341.255 709.87 341.284 709.834C341.313 709.797 341.349 709.766 341.389 709.744C341.43 709.721 341.475 709.706 341.521 709.701C341.568 709.695 341.615 709.699 341.66 709.712C341.705 709.724 341.747 709.746 341.783 709.775C342.049 709.984 342.32 710.186 342.596 710.381C342.634 710.408 342.667 710.442 342.692 710.482C342.716 710.521 342.733 710.565 342.741 710.611C342.749 710.657 342.748 710.704 342.738 710.75C342.727 710.795 342.708 710.838 342.681 710.877C342.654 710.915 342.62 710.947 342.58 710.972C342.541 710.997 342.497 711.014 342.451 711.022C342.405 711.03 342.358 711.028 342.312 711.018C342.267 711.008 342.224 710.989 342.186 710.962ZM339.843 709.087C338.472 707.854 337.237 706.478 336.159 704.982C336.106 704.905 336.085 704.811 336.1 704.719C336.116 704.627 336.167 704.544 336.243 704.49C336.319 704.435 336.413 704.413 336.505 704.427C336.597 704.441 336.68 704.491 336.736 704.566C337.784 706.02 338.985 707.359 340.318 708.558C340.389 708.621 340.431 708.709 340.436 708.803C340.441 708.897 340.408 708.99 340.345 709.06C340.282 709.13 340.194 709.172 340.1 709.177C340.005 709.182 339.913 709.15 339.843 709.087ZM380.528 707.797C379.444 709.232 378.23 710.564 376.902 711.777C376.868 711.809 376.84 711.847 376.82 711.889C376.8 711.931 376.789 711.977 376.787 712.024C376.785 712.07 376.792 712.117 376.808 712.161C376.824 712.205 376.848 712.245 376.879 712.28C376.911 712.314 376.949 712.342 376.991 712.362C377.034 712.382 377.079 712.393 377.126 712.395C377.173 712.397 377.219 712.39 377.263 712.374C377.307 712.358 377.347 712.334 377.382 712.302C378.742 711.06 379.985 709.695 381.096 708.226C381.153 708.15 381.178 708.055 381.164 707.962C381.151 707.868 381.102 707.784 381.026 707.727C380.951 707.67 380.856 707.646 380.763 707.659C380.669 707.672 380.585 707.722 380.528 707.797ZM375.449 713.019C375.195 713.227 374.937 713.429 374.674 713.625C374.467 713.751 374.467 713.972 374.569 714.125C374.671 714.278 374.874 714.362 375.072 714.214C375.353 714.006 375.629 713.791 375.899 713.569C375.935 713.54 375.965 713.503 375.987 713.462C376.009 713.421 376.023 713.376 376.028 713.33C376.032 713.283 376.028 713.236 376.014 713.192C376.001 713.147 375.978 713.105 375.949 713.069C375.919 713.033 375.883 713.003 375.842 712.981C375.801 712.959 375.755 712.945 375.709 712.941C375.663 712.936 375.616 712.941 375.571 712.954C375.526 712.968 375.485 712.99 375.449 713.019ZM333.111 672.686C334.164 671.233 335.348 669.879 336.648 668.642C336.681 668.609 336.708 668.571 336.727 668.528C336.746 668.486 336.757 668.44 336.758 668.393C336.759 668.346 336.751 668.3 336.734 668.256C336.717 668.213 336.692 668.173 336.66 668.139C336.628 668.105 336.589 668.078 336.546 668.059C336.504 668.04 336.458 668.03 336.411 668.029C336.364 668.028 336.318 668.036 336.274 668.052C336.231 668.069 336.191 668.094 336.157 668.127C334.826 669.394 333.613 670.781 332.535 672.269C332.508 672.307 332.488 672.35 332.477 672.396C332.467 672.441 332.465 672.488 332.472 672.534C332.48 672.58 332.496 672.625 332.521 672.664C332.545 672.704 332.577 672.739 332.615 672.766C332.653 672.793 332.696 672.813 332.741 672.824C332.787 672.835 332.834 672.836 332.88 672.829C332.926 672.822 332.97 672.805 333.01 672.781C333.05 672.756 333.084 672.724 333.111 672.686ZM338.073 667.371C338.331 667.15 338.601 666.935 338.855 666.735C338.93 666.676 338.977 666.591 338.989 666.497C339 666.403 338.973 666.309 338.915 666.235C338.856 666.161 338.771 666.113 338.677 666.102C338.584 666.091 338.489 666.118 338.415 666.176C338.155 666.381 337.878 666.602 337.61 666.831C337.575 666.861 337.546 666.899 337.525 666.94C337.504 666.982 337.491 667.027 337.487 667.074C337.484 667.12 337.489 667.167 337.504 667.212C337.518 667.256 337.541 667.297 337.572 667.332C337.602 667.368 337.639 667.397 337.681 667.418C337.723 667.439 337.768 667.452 337.815 667.456C337.861 667.459 337.908 667.454 337.952 667.439C337.997 667.425 338.038 667.401 338.073 667.371Z" fill="#EDDDD8"/>
<path d="M357 662.048C341.588 662.048 329.049 674.588 329.049 690C329.049 705.413 341.588 717.952 357 717.952C372.413 717.952 384.952 705.413 384.952 690C384.952 674.588 372.413 662.048 357 662.048ZM357 717.241C341.98 717.241 329.76 705.021 329.76 690C329.76 674.98 341.98 662.76 357 662.76C372.021 662.76 384.241 674.98 384.241 690C384.241 705.021 372.021 717.241 357 717.241Z" fill="#EDDDD8"/>
<path d="M341.702 676.14C340.286 676.14 339.135 677.291 339.135 678.706C339.135 680.122 340.286 681.274 341.702 681.274C343.117 681.274 344.269 680.122 344.269 678.706C344.269 677.291 343.117 676.14 341.702 676.14ZM341.702 680.562C340.679 680.562 339.846 679.73 339.846 678.706C339.846 677.683 340.679 676.851 341.702 676.851C342.725 676.851 343.557 677.683 343.557 678.706C343.557 679.73 342.725 680.562 341.702 680.562ZM359.22 669.261C357.805 669.261 356.653 670.412 356.653 671.828C356.653 673.243 357.805 674.395 359.22 674.395C360.635 674.395 361.787 673.243 361.787 671.828C361.787 670.412 360.636 669.261 359.22 669.261ZM359.22 673.683C358.197 673.683 357.364 672.851 357.364 671.828C357.364 670.804 358.197 669.972 359.22 669.972C360.243 669.972 361.076 670.804 361.076 671.828C361.076 672.851 360.244 673.683 359.22 673.683ZM363.839 690.527C362.424 690.527 361.272 691.679 361.272 693.094C361.272 694.51 362.424 695.661 363.839 695.661C365.254 695.661 366.406 694.51 366.406 693.094C366.406 691.679 365.254 690.527 363.839 690.527ZM363.839 694.95C362.816 694.95 361.984 694.117 361.984 693.094C361.984 692.071 362.816 691.238 363.839 691.238C364.862 691.238 365.695 692.071 365.695 693.094C365.695 694.117 364.862 694.95 363.839 694.95ZM354.745 686.46C354.745 685.045 353.593 683.893 352.178 683.893C350.763 683.893 349.611 685.045 349.611 686.46C349.611 687.876 350.763 689.027 352.178 689.027C353.593 689.027 354.745 687.876 354.745 686.46ZM350.322 686.46C350.322 685.437 351.155 684.605 352.178 684.605C353.201 684.605 354.034 685.437 354.034 686.46C354.034 687.483 353.201 688.316 352.178 688.316C351.155 688.316 350.322 687.483 350.322 686.46ZM368.262 701.136C366.846 701.136 365.695 702.288 365.695 703.703C365.695 705.118 366.846 706.27 368.262 706.27C369.677 706.27 370.829 705.118 370.829 703.703C370.829 702.288 369.677 701.136 368.262 701.136ZM368.262 705.559C367.238 705.559 366.406 704.726 366.406 703.703C366.406 702.68 367.238 701.847 368.262 701.847C369.285 701.847 370.118 702.68 370.118 703.703C370.118 704.726 369.285 705.559 368.262 705.559ZM370.473 676.14C369.058 676.14 367.906 677.291 367.906 678.706C367.906 680.122 369.058 681.274 370.473 681.274C371.888 681.274 373.04 680.122 373.04 678.706C373.04 677.291 371.888 676.14 370.473 676.14ZM370.473 680.562C369.45 680.562 368.617 679.73 368.617 678.706C368.617 677.683 369.45 676.851 370.473 676.851C371.496 676.851 372.329 677.683 372.329 678.706C372.329 679.73 371.496 680.562 370.473 680.562ZM377.486 693.859C376.071 693.859 374.919 695.01 374.919 696.426C374.919 697.841 376.071 698.993 377.486 698.993C378.901 698.993 380.053 697.841 380.053 696.426C380.053 695.01 378.901 693.859 377.486 693.859ZM377.486 698.282C376.463 698.282 375.63 697.449 375.63 696.426C375.63 695.403 376.462 694.57 377.486 694.57C378.509 694.57 379.341 695.402 379.341 696.426C379.341 697.449 378.509 698.282 377.486 698.282ZM339.927 688.316C338.512 688.316 337.36 689.467 337.36 690.883C337.36 692.298 338.512 693.45 339.927 693.45C341.343 693.45 342.494 692.298 342.494 690.883C342.494 689.467 341.343 688.316 339.927 688.316ZM339.927 692.739C338.904 692.739 338.072 691.906 338.072 690.883C338.072 689.86 338.904 689.027 339.927 689.027C340.951 689.027 341.783 689.859 341.783 690.883C341.783 691.906 340.951 692.739 339.927 692.739ZM353.458 704.468C352.043 704.468 350.891 705.619 350.891 707.035C350.891 708.45 352.043 709.601 353.458 709.601C354.874 709.601 356.025 708.45 356.025 707.035C356.025 705.619 354.874 704.468 353.458 704.468ZM353.458 708.89C352.435 708.89 351.603 708.058 351.603 707.035C351.603 706.011 352.435 705.179 353.458 705.179C354.482 705.179 355.314 706.011 355.314 707.035C355.314 708.058 354.482 708.89 353.458 708.89Z" fill="#EDDDD8"/>
</g>
<path d="M208.621 39.9884C208.789 39.6236 208.841 39.2161 208.771 38.8208C208.7 38.4255 208.51 38.0613 208.226 37.7772C207.942 37.4931 207.578 37.3027 207.183 37.2317C206.788 37.1607 206.38 37.2123 206.015 37.3798C204.836 37.9121 202.23 40.0633 201.267 41.0259C199.9 42.4037 198.69 43.9278 197.657 45.5709C197.445 45.4802 197.212 45.4549 196.986 45.4981C196.76 45.5414 196.553 45.6512 196.39 45.8136L195.403 46.7997L194.989 46.3849C194.493 45.8892 193.82 45.6107 193.119 45.6107C192.418 45.6107 191.745 45.8892 191.249 46.3849L169.388 68.244C168.891 68.7404 168.612 69.4137 168.611 70.1159C168.611 70.8181 168.889 71.4919 169.384 71.9893L169.799 72.4041L168.813 73.3882C168.651 73.5511 168.541 73.7588 168.498 73.9846C168.455 74.2104 168.48 74.4439 168.571 74.6552C166.928 75.6882 165.403 76.899 164.025 78.2659C163.064 79.2305 160.912 81.8347 160.38 83.0125C160.243 83.3116 160.182 83.6405 160.205 83.969C160.227 84.2975 160.332 84.6151 160.509 84.8927C160.686 85.1702 160.93 85.3989 161.218 85.5577C161.507 85.7165 161.831 85.8004 162.16 85.8015C162.446 85.8009 162.729 85.7392 162.989 85.6206C164.099 85.1142 166.655 83.0503 167.73 81.9714C169.097 80.5937 170.308 79.0706 171.343 77.4292C171.554 77.5197 171.788 77.5447 172.013 77.5011C172.239 77.4575 172.447 77.3472 172.609 77.1845L173.595 76.1984L174.01 76.6132C174.507 77.1085 175.18 77.3863 175.882 77.3857C176.584 77.3851 177.257 77.1061 177.753 76.61L199.613 54.7505C200.108 54.2544 200.387 53.5818 200.387 52.8804C200.387 52.1791 200.108 51.5065 199.613 51.0104L199.198 50.5956L200.184 49.6095C200.346 49.4469 200.456 49.2396 200.499 49.0142C200.543 48.7888 200.518 48.5556 200.428 48.3444C202.069 47.3091 203.592 46.0974 204.97 44.731C206.052 43.6528 208.116 41.1 208.621 39.9884ZM167.168 81.4088C166.177 82.3997 163.659 84.4397 162.658 84.8955C162.441 84.9968 162.197 85.0288 161.961 84.9871C161.725 84.9454 161.507 84.8321 161.337 84.6624C161.168 84.4927 161.054 84.275 161.013 84.0387C160.971 83.8025 161.003 83.5591 161.104 83.3416C161.563 82.3256 163.57 79.8469 164.587 78.8293C165.945 77.4812 167.451 76.2907 169.076 75.2804L170.72 76.9247C169.707 78.5472 168.515 80.0513 167.168 81.4088ZM172.046 76.6223C171.979 76.687 171.889 76.7232 171.795 76.7232C171.701 76.7232 171.611 76.687 171.544 76.6223L169.376 74.454C169.31 74.3873 169.272 74.297 169.272 74.2028C169.272 74.1087 169.31 74.0184 169.376 73.9516L170.362 72.9659L173.032 75.6354L172.046 76.6223ZM199.05 54.1903L177.191 76.0478C176.844 76.3946 176.374 76.5896 175.884 76.5902C175.393 76.5908 174.922 76.3969 174.575 76.051L169.948 71.4243C169.602 71.0765 169.408 70.6057 169.409 70.1152C169.409 69.6246 169.604 69.1543 169.951 68.8074L191.811 46.9483C192.157 46.6021 192.627 46.4076 193.117 46.4076C193.607 46.4076 194.077 46.6021 194.424 46.9483L199.051 51.575C199.397 51.9217 199.591 52.3916 199.591 52.8816C199.591 53.3716 199.397 53.8416 199.051 54.1883L199.05 54.1903ZM199.621 49.0505L198.635 50.0366L195.966 47.3671L196.952 46.3809C197.019 46.3146 197.109 46.2773 197.203 46.2773C197.297 46.2773 197.388 46.3146 197.454 46.3809L199.623 48.5492C199.688 48.6157 199.724 48.7052 199.724 48.7983C199.724 48.8915 199.688 48.9809 199.622 49.0473L199.621 49.0505ZM199.923 47.7237L198.28 46.0765C199.291 44.452 200.481 42.9468 201.829 41.5893C202.847 40.5721 205.325 38.5652 206.343 38.1054C206.56 38.0038 206.804 37.9716 207.04 38.0132C207.277 38.0548 207.495 38.1682 207.664 38.3379C207.834 38.5077 207.947 38.7255 207.989 38.9619C208.031 39.1983 207.998 39.4418 207.897 39.6593C207.441 40.6598 205.401 43.1783 204.41 44.1696C203.052 45.5169 201.547 46.7079 199.924 47.7205L199.923 47.7237Z" fill="#EDDDD8"/>
<path d="M181.91 58.8475L172.1 68.657C171.719 69.0199 171.472 69.5016 171.4 70.0233C171.372 70.2895 171.406 70.5584 171.498 70.8097C171.59 71.0609 171.738 71.2879 171.931 71.4732L173.565 73.1068C173.602 73.1448 173.646 73.1752 173.694 73.1961C173.743 73.217 173.795 73.228 173.848 73.2284C173.901 73.2289 173.954 73.2188 174.003 73.1988C174.051 73.1787 174.096 73.1491 174.133 73.1117C174.171 73.0743 174.2 73.0298 174.22 72.9809C174.24 72.9319 174.251 72.8794 174.25 72.8265C174.25 72.7736 174.239 72.7213 174.218 72.6727C174.197 72.6241 174.167 72.5802 174.128 72.5434L172.495 70.9098C172.385 70.8089 172.301 70.6837 172.248 70.5444C172.196 70.4051 172.177 70.2554 172.192 70.1074C172.246 69.7669 172.413 69.4545 172.666 69.2208L182.476 59.4109C182.513 59.3737 182.542 59.3297 182.562 59.2812C182.582 59.2327 182.592 59.1808 182.592 59.1284C182.592 59.0759 182.582 59.024 182.561 58.9756C182.541 58.9273 182.512 58.8833 182.475 58.8463C182.437 58.8093 182.393 58.78 182.345 58.76C182.296 58.7401 182.244 58.7299 182.192 58.73C182.14 58.7301 182.088 58.7405 182.039 58.7607C181.991 58.7809 181.947 58.8104 181.91 58.8475Z" fill="#EDDDD8"/>
<path d="M30.0121 205.621C30.3769 205.789 30.7843 205.841 31.1797 205.771C31.575 205.7 31.9392 205.51 32.2233 205.226C32.5074 204.943 32.6977 204.579 32.7688 204.183C32.8398 203.788 32.7881 203.381 32.6207 203.016C32.0883 201.836 29.9372 199.231 28.9746 198.267C27.5968 196.901 26.0726 195.69 24.4296 194.657C24.5203 194.446 24.5456 194.212 24.5024 193.986C24.4591 193.761 24.3493 193.553 24.1869 193.39L23.2008 192.404L23.6156 191.989C24.1113 191.493 24.3898 190.82 24.3898 190.119C24.3898 189.418 24.1113 188.745 23.6156 188.249L1.7565 166.388C1.26005 165.891 0.5868 165.612 -0.115414 165.611C-0.817631 165.611 -1.49141 165.889 -1.98881 166.385L-2.40359 166.8L-3.38773 165.814C-3.55062 165.651 -3.75831 165.542 -3.9841 165.498C-4.20989 165.455 -4.44345 165.48 -4.65476 165.571C-5.6877 163.928 -6.89855 162.403 -8.2654 161.026C-9.23002 160.064 -11.8342 157.913 -13.012 157.381C-13.3111 157.243 -13.64 157.183 -13.9685 157.205C-14.297 157.227 -14.6146 157.332 -14.8922 157.509C-15.1698 157.686 -15.3984 157.93 -15.5572 158.219C-15.716 158.507 -15.7999 158.831 -15.801 159.16C-15.8004 159.446 -15.7387 159.729 -15.6202 159.989C-15.1137 161.099 -13.0498 163.655 -11.9709 164.731C-10.5932 166.097 -9.0701 167.308 -7.42868 168.343C-7.51917 168.555 -7.54422 168.788 -7.50061 169.014C-7.457 169.239 -7.34673 169.447 -7.18404 169.609L-6.19791 170.595L-6.61268 171.01C-7.108 171.507 -7.38585 172.181 -7.38525 172.882C-7.38465 173.584 -7.10566 174.257 -6.60949 174.753L15.25 196.613C15.7461 197.109 16.4187 197.387 17.12 197.387C17.8214 197.387 18.494 197.109 18.9901 196.613L19.4049 196.198L20.391 197.184C20.5536 197.346 20.7609 197.456 20.9863 197.499C21.2117 197.543 21.4449 197.518 21.6561 197.428C22.6914 199.069 23.9031 200.592 25.2695 201.97C26.3477 203.052 28.9005 205.116 30.0121 205.621ZM-11.4083 164.168C-12.3992 163.177 -14.4392 160.659 -14.895 159.659C-14.9963 159.441 -15.0283 159.198 -14.9866 158.961C-14.9449 158.725 -14.8316 158.507 -14.6619 158.338C-14.4923 158.168 -14.2745 158.055 -14.0382 158.013C-13.802 157.971 -13.5586 158.003 -13.3411 158.105C-12.3251 158.564 -9.8464 160.571 -8.82879 161.588C-7.48073 162.946 -6.29024 164.452 -5.27991 166.077L-6.92426 167.72C-8.54674 166.707 -10.0508 165.516 -11.4083 164.168ZM-6.62185 169.046C-6.68655 168.979 -6.72267 168.889 -6.72267 168.795C-6.72267 168.702 -6.68655 168.612 -6.62185 168.544L-4.45355 166.376C-4.3868 166.31 -4.29648 166.272 -4.20233 166.272C-4.10818 166.272 -4.01786 166.31 -3.95112 166.376L-2.96539 167.362L-5.63491 170.032L-6.62185 169.046ZM15.8102 196.05L-6.0473 174.192C-6.39407 173.845 -6.58914 173.374 -6.58974 172.884C-6.59033 172.393 -6.39641 171.923 -6.05048 171.575L-1.42383 166.948C-1.07603 166.602 -0.605255 166.408 -0.1147 166.409C0.375854 166.41 0.846157 166.605 1.19311 166.952L23.0522 188.811C23.3984 189.158 23.5929 189.628 23.5929 190.117C23.5929 190.607 23.3984 191.077 23.0522 191.424L18.4255 196.051C18.0788 196.397 17.6089 196.592 17.1189 196.592C16.6289 196.592 16.1589 196.397 15.8122 196.051L15.8102 196.05ZM20.95 196.622L19.9639 195.635L22.6334 192.966L23.6196 193.952C23.6859 194.019 23.7232 194.109 23.7232 194.203C23.7232 194.298 23.6859 194.388 23.6196 194.454L21.4513 196.623C21.3848 196.688 21.2953 196.725 21.2022 196.725C21.109 196.724 21.0196 196.688 20.9532 196.622L20.95 196.622ZM22.2768 196.924L23.924 195.28C25.5484 196.291 27.0537 197.481 28.4112 198.829C29.4284 199.847 31.4353 202.325 31.8951 203.343C31.9967 203.561 32.0289 203.804 31.9873 204.041C31.9457 204.277 31.8323 204.495 31.6626 204.665C31.4928 204.834 31.275 204.948 31.0386 204.989C30.8022 205.031 30.5587 204.999 30.3412 204.897C29.3407 204.441 26.8222 202.401 25.8309 201.41C24.4836 200.052 23.2925 198.548 22.28 196.924L22.2768 196.924Z" fill="#EDDDD8"/>
<path d="M11.152 178.91L1.34247 169.101C0.979634 168.719 0.497883 168.472 -0.0237694 168.4C-0.289955 168.373 -0.558913 168.406 -0.810169 168.498C-1.06142 168.59 -1.28835 168.739 -1.47368 168.932L-3.10728 170.565C-3.14533 170.602 -3.17569 170.646 -3.19657 170.695C-3.21745 170.743 -3.22844 170.796 -3.2289 170.848C-3.22936 170.901 -3.21928 170.954 -3.19925 171.003C-3.17921 171.052 -3.14963 171.096 -3.11222 171.134C-3.07481 171.171 -3.03032 171.201 -2.98135 171.221C-2.93239 171.241 -2.87992 171.251 -2.82702 171.25C-2.77411 171.25 -2.72183 171.239 -2.67322 171.218C-2.62461 171.197 -2.58064 171.167 -2.54389 171.129L-0.910292 169.495C-0.809348 169.386 -0.684237 169.301 -0.544922 169.249C-0.405606 169.196 -0.255936 169.177 -0.107839 169.192C0.232641 169.246 0.545021 169.413 0.778684 169.666L10.5886 179.476C10.6258 179.513 10.6698 179.542 10.7183 179.562C10.7668 179.582 10.8187 179.592 10.8712 179.592C10.9236 179.592 10.9755 179.582 11.0239 179.562C11.0723 179.541 11.1162 179.512 11.1532 179.475C11.1902 179.438 11.2195 179.394 11.2395 179.345C11.2594 179.297 11.2696 179.245 11.2695 179.192C11.2694 179.14 11.259 179.088 11.2388 179.04C11.2187 178.991 11.1892 178.947 11.152 178.91Z" fill="#EDDDD8"/>
<g clip-path="url(#clip4_998_1714)">
<path d="M260.928 425.665C261.751 425.95 262.651 425.918 263.452 425.575C264.253 425.232 264.897 424.602 265.259 423.809C270.351 413.057 279.008 404.4 289.76 399.308C290.553 398.947 291.183 398.302 291.526 397.501C291.869 396.7 291.901 395.8 291.616 394.977L291.418 394.432C291.245 393.955 290.978 393.518 290.633 393.147C290.287 392.775 289.871 392.476 289.408 392.269C288.946 392.061 288.446 391.948 287.939 391.937C287.432 391.926 286.927 392.017 286.456 392.205C280.046 394.746 274.224 398.572 269.349 403.447C264.473 408.323 260.647 414.145 258.106 420.555C257.92 421.026 257.83 421.53 257.842 422.037C257.853 422.544 257.966 423.043 258.174 423.505C258.381 423.968 258.679 424.384 259.05 424.729C259.421 425.075 259.858 425.343 260.334 425.517L260.928 425.665Z" stroke="#EDDDD8" stroke-linecap="round" stroke-linejoin="round"/>
<path d="M264.41 425.015C264.789 424.689 265.095 424.287 265.307 423.834C270.399 413.067 279.067 404.399 289.833 399.308C290.284 399.098 290.685 398.794 291.009 398.417L304.299 435.577C304.433 435.957 304.456 436.366 304.367 436.759C304.278 437.151 304.079 437.51 303.795 437.795C303.51 438.08 303.151 438.278 302.758 438.367C302.366 438.456 301.956 438.433 301.577 438.299L264.398 425.003L264.41 425.015Z" stroke="#EDDDD8" stroke-linecap="round" stroke-linejoin="round"/>
<path d="M289.543 416.687C291.487 414.743 291.487 411.591 289.543 409.646C287.599 407.702 284.446 407.702 282.502 409.646C280.558 411.591 280.558 414.743 282.502 416.688C284.446 418.632 287.599 418.632 289.543 416.687Z" stroke="#EDDDD8" stroke-linecap="round" stroke-linejoin="round"/>
<path d="M274.236 428.518C274.256 427.73 274.462 426.959 274.838 426.267C275.214 425.575 275.748 424.982 276.398 424.536C277.047 424.091 277.793 423.806 278.574 423.705C279.356 423.604 280.149 423.689 280.891 423.955C281.632 424.22 282.3 424.658 282.84 425.231C283.38 425.805 283.775 426.499 283.995 427.255C284.214 428.011 284.251 428.809 284.102 429.582C283.954 430.356 283.624 431.083 283.139 431.704L274.236 428.518ZM301.936 428.957C301.31 429.414 300.586 429.718 299.821 429.846C299.057 429.974 298.273 429.923 297.532 429.695C296.791 429.467 296.113 429.07 295.552 428.534C294.992 427.999 294.564 427.34 294.302 426.611C294.041 425.881 293.953 425.1 294.045 424.331C294.138 423.561 294.409 422.824 294.836 422.177C295.264 421.53 295.836 420.992 296.508 420.605C297.18 420.218 297.933 419.994 298.706 419.948L301.936 428.957Z" stroke="#EDDDD8" stroke-linecap="round" stroke-linejoin="round"/>
</g>
<g clip-path="url(#clip5_998_1714)">
<path d="M6.53014 517.927C6.24482 518.751 6.27694 519.651 6.62022 520.452C6.9635 521.253 7.59325 521.897 8.3863 522.258C19.1381 527.351 27.7954 536.008 32.8875 546.76C33.2488 547.553 33.8929 548.183 34.6939 548.526C35.4949 548.869 36.3952 548.901 37.2186 548.616L37.7631 548.418C38.2399 548.245 38.6771 547.978 39.0487 547.632C39.4204 547.287 39.7189 546.871 39.9266 546.408C40.1344 545.945 40.2471 545.446 40.258 544.938C40.269 544.431 40.178 543.927 39.9904 543.456C37.4496 537.046 33.6236 531.224 28.7481 526.348C23.8725 521.473 18.0506 517.647 11.6408 515.106C11.1693 514.92 10.6654 514.83 10.1586 514.841C9.65178 514.853 9.15244 514.966 8.68998 515.173C8.22752 515.381 7.81129 515.679 7.46586 516.05C7.12042 516.421 6.85275 516.857 6.67864 517.333L6.53014 517.927Z" stroke="#EDDDD8" stroke-linecap="round" stroke-linejoin="round"/>
<path d="M7.17959 521.411C7.50579 521.79 7.90853 522.096 8.36134 522.308C19.1282 527.399 27.796 536.067 32.8873 546.834C33.0974 547.285 33.4012 547.685 33.7783 548.009L-3.38194 561.3C-3.76159 561.433 -4.17125 561.457 -4.56367 561.367C-4.9561 561.278 -5.3153 561.08 -5.59987 560.795C-5.88444 560.511 -6.08279 560.151 -6.17204 559.759C-6.26129 559.366 -6.2378 558.957 -6.1043 558.577L7.19196 521.398L7.17959 521.411Z" stroke="#EDDDD8" stroke-linecap="round" stroke-linejoin="round"/>
<path d="M15.5078 546.543C17.4521 548.487 20.6045 548.487 22.5488 546.543C24.4932 544.599 24.4932 541.446 22.5488 539.502C20.6045 537.558 17.4521 537.558 15.5078 539.502C13.5635 541.446 13.5635 544.599 15.5078 546.543Z" stroke="#EDDDD8" stroke-linecap="round" stroke-linejoin="round"/>
<path d="M3.67797 531.236C4.46529 531.256 5.2367 531.462 5.92882 531.838C6.62095 532.214 7.21404 532.748 7.6594 533.398C8.10476 534.047 8.38966 534.793 8.49072 535.574C8.59177 536.356 8.50609 537.149 8.24071 537.891C7.97534 538.632 7.53783 539.3 6.96414 539.84C6.39045 540.38 5.69693 540.775 4.94056 540.995C4.18419 541.214 3.38654 541.251 2.61314 541.102C1.83973 540.954 1.11263 540.624 0.491569 540.139L3.67797 531.236ZM3.23868 558.936C2.78187 558.31 2.47734 557.586 2.34925 556.821C2.22116 556.057 2.27305 555.273 2.50079 554.532C2.72853 553.791 3.12586 553.113 3.66123 552.552C4.19661 551.992 4.85529 551.564 5.585 551.302C6.31471 551.041 7.09535 550.953 7.86497 551.045C8.63459 551.138 9.37199 551.409 10.0186 551.836C10.6653 552.264 11.2034 552.836 11.5903 553.508C11.9771 554.18 12.202 554.933 12.2472 555.706L3.23868 558.936Z" stroke="#EDDDD8" stroke-linecap="round" stroke-linejoin="round"/>
</g>
<g clip-path="url(#clip6_998_1714)">
<path d="M0.185518 792.962C-0.101024 792.76 -0.382109 792.55 -0.657434 792.333C-0.694094 792.304 -0.724694 792.268 -0.747487 792.228C-0.77028 792.187 -0.784819 792.142 -0.790273 792.096C-0.795728 792.049 -0.79199 792.002 -0.779275 791.957C-0.76656 791.912 -0.745116 791.87 -0.716169 791.834C-0.687268 791.797 -0.651412 791.766 -0.610656 791.744C-0.569899 791.721 -0.525041 791.706 -0.47865 791.701C-0.432261 791.695 -0.38525 791.699 -0.340311 791.712C-0.295372 791.724 -0.253388 791.746 -0.216763 791.775C0.0488024 791.984 0.319856 792.186 0.596112 792.381C0.634239 792.408 0.666683 792.442 0.691591 792.482C0.716499 792.521 0.733384 792.565 0.741281 792.611C0.749177 792.657 0.747931 792.704 0.737615 792.75C0.727298 792.795 0.708112 792.838 0.681151 792.877C0.654192 792.915 0.619986 792.947 0.580487 792.972C0.540989 792.997 0.49697 793.014 0.450947 793.022C0.404923 793.03 0.357795 793.028 0.312253 793.018C0.26671 793.008 0.223646 792.989 0.185518 792.962ZM-2.15697 791.087C-3.52791 789.854 -4.7629 788.478 -5.84082 786.982C-5.8942 786.905 -5.91532 786.811 -5.89962 786.719C-5.88393 786.627 -5.83268 786.544 -5.75694 786.49C-5.6812 786.435 -5.58704 786.413 -5.49477 786.427C-5.40251 786.441 -5.31954 786.491 -5.26376 786.566C-4.21556 788.02 -3.01467 789.359 -1.68162 790.558C-1.61148 790.621 -1.56925 790.709 -1.56423 790.803C-1.5592 790.897 -1.59179 790.99 -1.65482 791.06C-1.71786 791.13 -1.80618 791.172 -1.90035 791.177C-1.99451 791.182 -2.08682 791.15 -2.15697 791.087ZM38.5281 789.797C37.444 791.232 36.2302 792.564 34.9022 793.777C34.8677 793.809 34.8398 793.847 34.82 793.889C34.8002 793.931 34.7889 793.977 34.7868 794.024C34.7847 794.07 34.7918 794.117 34.8077 794.161C34.8236 794.205 34.848 794.245 34.8795 794.28C34.911 794.314 34.9489 794.342 34.9912 794.362C35.0335 794.382 35.0793 794.393 35.126 794.395C35.1726 794.397 35.2192 794.39 35.2631 794.374C35.307 794.358 35.3474 794.334 35.3818 794.302C36.7421 793.06 37.9855 791.695 39.0961 790.226C39.153 790.15 39.1775 790.055 39.1645 789.962C39.1514 789.868 39.1018 789.784 39.0264 789.727C38.9511 789.67 38.8563 789.646 38.7629 789.659C38.6694 789.672 38.585 789.722 38.5281 789.797ZM33.4485 795.019C33.1949 795.227 32.9366 795.429 32.6737 795.625C32.467 795.751 32.4674 795.972 32.5692 796.125C32.6709 796.278 32.8739 796.362 33.0724 796.214C33.3531 796.006 33.6288 795.791 33.8992 795.569C33.9353 795.54 33.9652 795.503 33.9873 795.462C34.0093 795.421 34.023 795.376 34.0276 795.33C34.0323 795.283 34.0277 795.236 34.0142 795.192C34.0006 795.147 33.9785 795.105 33.9489 795.069C33.9193 795.033 33.8829 795.003 33.8417 794.981C33.8006 794.959 33.7555 794.945 33.709 794.941C33.6625 794.936 33.6156 794.941 33.5709 794.954C33.5262 794.968 33.4846 794.99 33.4485 795.019ZM-8.88856 754.686C-7.83585 753.233 -6.6522 751.879 -5.35247 750.642C-5.31865 750.609 -5.2915 750.571 -5.27258 750.528C-5.25365 750.486 -5.24332 750.44 -5.24218 750.393C-5.24103 750.346 -5.24909 750.3 -5.26589 750.256C-5.28269 750.213 -5.30791 750.173 -5.34011 750.139C-5.3723 750.105 -5.41084 750.078 -5.45353 750.059C-5.49622 750.04 -5.54221 750.03 -5.58889 750.029C-5.63557 750.028 -5.68202 750.036 -5.72558 750.052C-5.76915 750.069 -5.80897 750.094 -5.84279 750.127C-7.17421 751.394 -8.3866 752.781 -9.46475 754.269C-9.49212 754.307 -9.51177 754.35 -9.52258 754.396C-9.53338 754.441 -9.53513 754.488 -9.52773 754.534C-9.52032 754.58 -9.50391 754.625 -9.47942 754.664C-9.45493 754.704 -9.42285 754.739 -9.38501 754.766C-9.34718 754.793 -9.30433 754.813 -9.25891 754.824C-9.21348 754.835 -9.16637 754.836 -9.12027 754.829C-9.07416 754.822 -9.02997 754.805 -8.99021 754.781C-8.95046 754.756 -8.91591 754.724 -8.88856 754.686ZM-3.92676 749.371C-3.66918 749.15 -3.39859 748.935 -3.14451 748.735C-3.07043 748.676 -3.02256 748.591 -3.01144 748.497C-3.00032 748.403 -3.02687 748.309 -3.08523 748.235C-3.1436 748.161 -3.229 748.113 -3.32266 748.102C-3.41631 748.091 -3.51055 748.118 -3.58464 748.176C-3.84473 748.381 -4.12222 748.602 -4.38964 748.831C-4.42509 748.861 -4.45422 748.899 -4.47534 748.94C-4.49647 748.982 -4.50918 749.027 -4.51276 749.074C-4.51634 749.12 -4.51072 749.167 -4.49621 749.212C-4.4817 749.256 -4.45859 749.297 -4.42819 749.332C-4.3978 749.368 -4.36072 749.397 -4.31907 749.418C-4.27743 749.439 -4.23202 749.452 -4.18546 749.456C-4.1389 749.459 -4.09209 749.454 -4.0477 749.439C-4.00331 749.425 -3.96222 749.401 -3.92676 749.371Z" fill="#EDDDD8"/>
<path d="M15.0005 744.048C-0.412095 744.048 -12.9512 756.588 -12.9512 772C-12.9512 787.413 -0.412095 799.952 15.0005 799.952C30.4129 799.952 42.9521 787.413 42.9521 772C42.9521 756.588 30.4129 744.048 15.0005 744.048ZM15.0005 799.241C-0.0199862 799.241 -12.2399 787.021 -12.2399 772C-12.2399 756.98 -0.0199862 744.76 15.0005 744.76C30.0209 744.76 42.2409 756.98 42.2409 772C42.2409 787.021 30.0209 799.241 15.0005 799.241Z" fill="#EDDDD8"/>
<path d="M-0.298227 758.14C-1.71365 758.14 -2.86526 759.291 -2.86526 760.706C-2.86526 762.122 -1.71365 763.274 -0.298227 763.274C1.1172 763.274 2.26859 762.122 2.26859 760.706C2.26859 759.291 1.11709 758.14 -0.298227 758.14ZM-0.298227 762.562C-1.32143 762.562 -2.15399 761.73 -2.15399 760.706C-2.15399 759.683 -1.32143 758.851 -0.298227 758.851C0.724976 758.851 1.55743 759.683 1.55743 760.706C1.55732 761.73 0.724976 762.562 -0.298227 762.562ZM17.2203 751.261C15.8048 751.261 14.6532 752.412 14.6532 753.828C14.6532 755.243 15.8048 756.395 17.2203 756.395C18.6355 756.395 19.7871 755.243 19.7871 753.828C19.7871 752.412 18.6356 751.261 17.2203 751.261ZM17.2203 755.683C16.1971 755.683 15.3645 754.851 15.3645 753.828C15.3645 752.804 16.1971 751.972 17.2203 751.972C18.2435 751.972 19.0759 752.804 19.0759 753.828C19.0759 754.851 18.2436 755.683 17.2203 755.683ZM21.8392 772.527C20.424 772.527 19.2723 773.679 19.2723 775.094C19.2723 776.51 20.424 777.661 21.8392 777.661C23.2544 777.661 24.406 776.51 24.406 775.094C24.406 773.679 23.2545 772.527 21.8392 772.527ZM21.8392 776.95C20.816 776.95 19.9835 776.117 19.9835 775.094C19.9835 774.071 20.8158 773.238 21.8392 773.238C22.8625 773.238 23.6948 774.071 23.6948 775.094C23.6948 776.117 22.8624 776.95 21.8392 776.95ZM12.745 768.46C12.745 767.045 11.5934 765.893 10.1779 765.893C8.76251 765.893 7.61112 767.045 7.61112 768.46C7.61112 769.876 8.76262 771.027 10.1779 771.027C11.5932 771.027 12.745 769.876 12.745 768.46ZM8.32227 768.46C8.32227 767.437 9.15462 766.605 10.1779 766.605C11.2012 766.605 12.0337 767.437 12.0337 768.46C12.0337 769.483 11.2011 770.316 10.1779 770.316C9.15473 770.316 8.32227 769.483 8.32227 768.46ZM26.2616 783.136C24.8464 783.136 23.6948 784.288 23.6948 785.703C23.6948 787.118 24.8464 788.27 26.2616 788.27C27.6772 788.27 28.8288 787.118 28.8288 785.703C28.8288 784.288 27.6772 783.136 26.2616 783.136ZM26.2616 787.559C25.2384 787.559 24.406 786.726 24.406 785.703C24.406 784.68 25.2383 783.847 26.2616 783.847C27.2849 783.847 28.1175 784.68 28.1175 785.703C28.1175 786.726 27.2848 787.559 26.2616 787.559ZM28.4731 758.14C27.0576 758.14 25.9059 759.291 25.9059 760.706C25.9059 762.122 27.0576 763.274 28.4731 763.274C29.8883 763.274 31.0399 762.122 31.0399 760.706C31.04 759.291 29.8884 758.14 28.4731 758.14ZM28.4731 762.562C27.4499 762.562 26.6172 761.73 26.6172 760.706C26.6172 759.683 27.4499 758.851 28.4731 758.851C29.4963 758.851 30.3287 759.683 30.3287 760.706C30.3287 761.73 29.4964 762.562 28.4731 762.562ZM35.4858 775.859C34.0706 775.859 32.919 777.01 32.919 778.426C32.919 779.841 34.0706 780.993 35.4858 780.993C36.901 780.993 38.0526 779.841 38.0526 778.426C38.0526 777.01 36.901 775.859 35.4858 775.859ZM35.4858 780.282C34.4626 780.282 33.6301 779.449 33.6301 778.426C33.6301 777.403 34.4625 776.57 35.4858 776.57C36.509 776.57 37.3414 777.402 37.3414 778.426C37.3414 779.449 36.509 780.282 35.4858 780.282ZM-2.07262 770.316C-3.48804 770.316 -4.63965 771.467 -4.63965 772.883C-4.63965 774.298 -3.48804 775.45 -2.07262 775.45C-0.657196 775.45 0.494195 774.298 0.494195 772.883C0.494195 771.467 -0.657196 770.316 -2.07262 770.316ZM-2.07262 774.739C-3.09582 774.739 -3.92838 773.906 -3.92838 772.883C-3.92838 771.86 -3.09582 771.027 -2.07262 771.027C-1.04941 771.027 -0.216961 771.859 -0.216961 772.883C-0.216961 773.906 -1.04941 774.739 -2.07262 774.739ZM11.4584 786.468C10.043 786.468 8.89135 787.619 8.89135 789.035C8.89135 790.45 10.043 791.601 11.4584 791.601C12.8738 791.601 14.0252 790.45 14.0252 789.035C14.0253 787.619 12.8738 786.468 11.4584 786.468ZM11.4584 790.89C10.4352 790.89 9.60262 790.058 9.60262 789.035C9.60262 788.011 10.4351 787.179 11.4584 787.179C12.4816 787.179 13.314 788.011 13.314 789.035C13.314 790.058 12.4817 790.89 11.4584 790.89Z" fill="#EDDDD8"/>
</g>
</g>
<defs>
<clipPath id="clip0_998_1714">
<rect width="390" height="844" fill="white"/>
</clipPath>
<clipPath id="clip1_998_1714">
<rect width="56" height="56" fill="white" transform="translate(348 112)"/>
</clipPath>
<clipPath id="clip2_998_1714">
<rect width="56" height="56" fill="white" transform="translate(68 270)"/>
</clipPath>
<clipPath id="clip3_998_1714">
<rect width="56" height="56" fill="white" transform="translate(329 662)"/>
</clipPath>
<clipPath id="clip4_998_1714">
<rect width="56" height="56" fill="white" transform="translate(247 420.598) rotate(-45)"/>
</clipPath>
<clipPath id="clip5_998_1714">
<rect width="56" height="56" fill="white" transform="translate(11.5977 504) rotate(45)"/>
</clipPath>
<clipPath id="clip6_998_1714">
<rect width="56" height="56" fill="white" transform="translate(-13 744)"/>
</clipPath>
</defs>
</svg>
