<svg width="390" height="844" viewBox="0 0 390 844" fill="none" xmlns="http://www.w3.org/2000/svg">
<g clip-path="url(#clip0_1657_2351)">
<path d="M361.186 160.962C360.899 160.76 360.618 160.55 360.343 160.333C360.306 160.304 360.276 160.268 360.253 160.228C360.23 160.187 360.216 160.142 360.21 160.096C360.205 160.049 360.208 160.002 360.221 159.957C360.234 159.912 360.255 159.87 360.284 159.834C360.313 159.797 360.349 159.766 360.39 159.744C360.431 159.721 360.475 159.706 360.522 159.701C360.568 159.695 360.615 159.699 360.66 159.712C360.705 159.725 360.747 159.746 360.784 159.775C361.049 159.984 361.32 160.186 361.597 160.381C361.635 160.408 361.667 160.442 361.692 160.482C361.717 160.521 361.734 160.565 361.742 160.611C361.75 160.657 361.748 160.704 361.738 160.75C361.728 160.795 361.709 160.839 361.682 160.877C361.655 160.915 361.62 160.947 361.581 160.972C361.541 160.997 361.497 161.014 361.451 161.022C361.405 161.03 361.358 161.028 361.313 161.018C361.267 161.008 361.224 160.989 361.186 160.962ZM358.843 159.087C357.473 157.854 356.238 156.478 355.16 154.982C355.106 154.905 355.085 154.811 355.101 154.719C355.116 154.627 355.168 154.544 355.243 154.49C355.319 154.435 355.413 154.413 355.506 154.427C355.598 154.441 355.681 154.491 355.737 154.566C356.785 156.021 357.986 157.359 359.319 158.558C359.389 158.621 359.431 158.709 359.436 158.803C359.441 158.897 359.409 158.99 359.346 159.06C359.283 159.13 359.194 159.172 359.1 159.177C359.006 159.182 358.914 159.15 358.843 159.087ZM399.529 157.797C398.444 159.232 397.231 160.564 395.903 161.777C395.868 161.809 395.84 161.847 395.82 161.889C395.801 161.931 395.789 161.977 395.787 162.024C395.785 162.07 395.792 162.117 395.808 162.161C395.824 162.205 395.848 162.245 395.88 162.28C395.911 162.314 395.949 162.342 395.992 162.362C396.034 162.382 396.08 162.393 396.126 162.395C396.173 162.397 396.22 162.39 396.264 162.374C396.307 162.358 396.348 162.334 396.382 162.302C397.743 161.06 398.986 159.695 400.097 158.226C400.153 158.15 400.178 158.055 400.165 157.962C400.152 157.869 400.102 157.784 400.027 157.727C399.952 157.67 399.857 157.646 399.763 157.659C399.67 157.672 399.585 157.722 399.529 157.797ZM394.449 163.02C394.195 163.227 393.937 163.429 393.674 163.625C393.467 163.751 393.468 163.972 393.57 164.125C393.671 164.278 393.874 164.362 394.073 164.214C394.354 164.006 394.629 163.791 394.9 163.57C394.936 163.54 394.966 163.504 394.988 163.462C395.01 163.421 395.023 163.376 395.028 163.33C395.033 163.283 395.028 163.236 395.015 163.192C395.001 163.147 394.979 163.105 394.949 163.069C394.92 163.033 394.883 163.003 394.842 162.981C394.801 162.959 394.756 162.945 394.709 162.941C394.663 162.936 394.616 162.941 394.571 162.954C394.527 162.968 394.485 162.99 394.449 163.02ZM352.112 122.686C353.165 121.233 354.348 119.879 355.648 118.642C355.682 118.609 355.709 118.571 355.728 118.528C355.747 118.486 355.757 118.44 355.758 118.393C355.759 118.346 355.751 118.3 355.735 118.256C355.718 118.213 355.693 118.173 355.66 118.139C355.628 118.105 355.59 118.078 355.547 118.059C355.504 118.04 355.458 118.03 355.412 118.029C355.365 118.028 355.318 118.036 355.275 118.052C355.231 118.069 355.191 118.094 355.158 118.127C353.826 119.394 352.614 120.781 351.536 122.27C351.508 122.307 351.489 122.35 351.478 122.396C351.467 122.441 351.465 122.488 351.473 122.534C351.48 122.58 351.497 122.625 351.521 122.664C351.545 122.704 351.578 122.739 351.615 122.766C351.653 122.793 351.696 122.813 351.742 122.824C351.787 122.835 351.834 122.836 351.88 122.829C351.926 122.822 351.97 122.805 352.01 122.781C352.05 122.756 352.085 122.724 352.112 122.686ZM357.074 117.371C357.331 117.15 357.602 116.935 357.856 116.735C357.93 116.676 357.978 116.591 357.989 116.497C358 116.404 357.974 116.309 357.915 116.235C357.857 116.161 357.771 116.113 357.678 116.102C357.584 116.091 357.49 116.118 357.416 116.176C357.156 116.381 356.878 116.602 356.611 116.831C356.575 116.861 356.546 116.899 356.525 116.94C356.504 116.982 356.491 117.027 356.488 117.074C356.484 117.12 356.49 117.167 356.504 117.212C356.519 117.256 356.542 117.297 356.572 117.333C356.603 117.368 356.64 117.397 356.681 117.418C356.723 117.439 356.768 117.452 356.815 117.456C356.862 117.459 356.908 117.454 356.953 117.439C356.997 117.425 357.038 117.401 357.074 117.371Z" fill="#EDDDD8"/>
<path d="M376 112.048C360.588 112.048 348.048 124.587 348.048 140C348.048 155.413 360.588 167.952 376 167.952C391.413 167.952 403.952 155.413 403.952 140C403.952 124.588 391.413 112.048 376 112.048ZM376 167.24C360.98 167.24 348.76 155.021 348.76 140C348.76 124.98 360.98 112.759 376 112.759C391.021 112.759 403.241 124.98 403.241 140C403.241 155.021 391.021 167.24 376 167.24Z" fill="#EDDDD8"/>
<path d="M360.702 126.14C359.287 126.14 358.135 127.291 358.135 128.706C358.135 130.122 359.287 131.273 360.702 131.273C362.118 131.273 363.269 130.122 363.269 128.706C363.269 127.291 362.118 126.14 360.702 126.14ZM360.702 130.562C359.679 130.562 358.846 129.73 358.846 128.706C358.846 127.683 359.679 126.851 360.702 126.851C361.725 126.851 362.558 127.683 362.558 128.706C362.558 129.73 361.725 130.562 360.702 130.562ZM378.221 119.261C376.805 119.261 375.654 120.412 375.654 121.827C375.654 123.243 376.805 124.394 378.221 124.394C379.636 124.394 380.788 123.243 380.788 121.827C380.788 120.412 379.636 119.261 378.221 119.261ZM378.221 123.683C377.198 123.683 376.365 122.851 376.365 121.827C376.365 120.804 377.198 119.972 378.221 119.972C379.244 119.972 380.076 120.804 380.076 121.827C380.076 122.851 379.244 123.683 378.221 123.683ZM382.84 140.527C381.424 140.527 380.273 141.679 380.273 143.094C380.273 144.51 381.424 145.661 382.84 145.661C384.255 145.661 385.406 144.509 385.406 143.094C385.406 141.679 384.255 140.527 382.84 140.527ZM382.84 144.95C381.816 144.95 380.984 144.117 380.984 143.094C380.984 142.071 381.816 141.238 382.84 141.238C383.863 141.238 384.695 142.071 384.695 143.094C384.695 144.117 383.863 144.95 382.84 144.95ZM373.745 136.46C373.745 135.045 372.594 133.893 371.178 133.893C369.763 133.893 368.612 135.045 368.612 136.46C368.612 137.875 369.763 139.027 371.178 139.027C372.594 139.027 373.745 137.875 373.745 136.46ZM369.323 136.46C369.323 135.437 370.155 134.604 371.178 134.604C372.202 134.604 373.034 135.437 373.034 136.46C373.034 137.483 372.202 138.316 371.178 138.316C370.155 138.316 369.323 137.483 369.323 136.46ZM387.262 151.136C385.847 151.136 384.695 152.287 384.695 153.703C384.695 155.118 385.847 156.27 387.262 156.27C388.678 156.27 389.829 155.118 389.829 153.703C389.829 152.287 388.678 151.136 387.262 151.136ZM387.262 155.559C386.239 155.559 385.406 154.726 385.406 153.703C385.406 152.68 386.239 151.847 387.262 151.847C388.285 151.847 389.118 152.679 389.118 153.703C389.118 154.726 388.285 155.559 387.262 155.559ZM389.474 126.14C388.058 126.14 386.906 127.291 386.906 128.706C386.906 130.122 388.058 131.273 389.474 131.273C390.889 131.273 392.04 130.122 392.04 128.706C392.04 127.291 390.889 126.14 389.474 126.14ZM389.474 130.562C388.45 130.562 387.618 129.73 387.618 128.706C387.618 127.683 388.45 126.851 389.474 126.851C390.497 126.851 391.329 127.683 391.329 128.706C391.329 129.73 390.497 130.562 389.474 130.562ZM396.486 143.859C395.071 143.859 393.919 145.01 393.919 146.426C393.919 147.841 395.071 148.993 396.486 148.993C397.901 148.993 399.053 147.841 399.053 146.426C399.053 145.01 397.901 143.859 396.486 143.859ZM396.486 148.281C395.463 148.281 394.631 147.449 394.631 146.426C394.631 145.402 395.463 144.57 396.486 144.57C397.509 144.57 398.342 145.402 398.342 146.426C398.342 147.449 397.509 148.281 396.486 148.281ZM358.928 138.316C357.512 138.316 356.361 139.467 356.361 140.883C356.361 142.298 357.512 143.45 358.928 143.45C360.343 143.45 361.495 142.298 361.495 140.883C361.495 139.467 360.343 138.316 358.928 138.316ZM358.928 142.738C357.905 142.738 357.072 141.906 357.072 140.883C357.072 139.859 357.905 139.027 358.928 139.027C359.951 139.027 360.784 139.859 360.784 140.883C360.784 141.906 359.951 142.738 358.928 142.738ZM372.459 154.468C371.043 154.468 369.892 155.619 369.892 157.034C369.892 158.45 371.043 159.601 372.459 159.601C373.874 159.601 375.026 158.45 375.026 157.034C375.026 155.619 373.874 154.468 372.459 154.468ZM372.459 158.89C371.436 158.89 370.603 158.058 370.603 157.034C370.603 156.011 371.436 155.179 372.459 155.179C373.482 155.179 374.315 156.011 374.315 157.034C374.315 158.058 373.482 158.89 372.459 158.89Z" fill="#EDDDD8"/>
</g>
<g clip-path="url(#clip1_1657_2351)">
<path d="M81.1859 318.962C80.8993 318.76 80.6183 318.55 80.3429 318.333C80.3063 318.304 80.2757 318.268 80.2529 318.228C80.2301 318.187 80.2155 318.142 80.2101 318.096C80.2046 318.049 80.2084 318.002 80.2211 317.957C80.2338 317.912 80.2552 317.87 80.2842 317.834C80.3131 317.797 80.349 317.766 80.3897 317.744C80.4305 317.721 80.4753 317.706 80.5217 317.701C80.5681 317.695 80.6151 317.699 80.6601 317.712C80.705 317.725 80.747 317.746 80.7836 317.775C81.0492 317.984 81.3202 318.186 81.5965 318.381C81.6346 318.408 81.667 318.442 81.692 318.482C81.7169 318.521 81.7338 318.565 81.7416 318.611C81.7495 318.657 81.7483 318.704 81.738 318.75C81.7277 318.795 81.7085 318.839 81.6815 318.877C81.6546 318.915 81.6204 318.947 81.5809 318.972C81.5414 318.997 81.4973 319.014 81.4513 319.022C81.4053 319.03 81.3582 319.028 81.3126 319.018C81.2671 319.008 81.224 318.989 81.1859 318.962ZM78.8434 317.087C77.4725 315.854 76.2375 314.478 75.1595 312.982C75.1062 312.905 75.0851 312.811 75.1007 312.719C75.1164 312.627 75.1677 312.544 75.2434 312.49C75.3192 312.435 75.4133 312.413 75.5056 312.427C75.5979 312.441 75.6808 312.491 75.7366 312.566C76.7848 314.021 77.9857 315.359 79.3187 316.558C79.3889 316.621 79.4311 316.709 79.4361 316.803C79.4412 316.897 79.4086 316.99 79.3455 317.06C79.2825 317.13 79.1942 317.172 79.1 317.177C79.0059 317.182 78.9135 317.15 78.8434 317.087ZM119.528 315.797C118.444 317.232 117.231 318.564 115.903 319.777C115.868 319.809 115.84 319.847 115.82 319.889C115.801 319.931 115.789 319.977 115.787 320.024C115.785 320.07 115.792 320.117 115.808 320.161C115.824 320.205 115.848 320.245 115.88 320.28C115.911 320.314 115.949 320.342 115.992 320.362C116.034 320.382 116.08 320.393 116.126 320.395C116.173 320.397 116.22 320.39 116.263 320.374C116.307 320.358 116.348 320.334 116.382 320.302C117.743 319.06 118.986 317.695 120.096 316.226C120.153 316.15 120.178 316.055 120.165 315.962C120.152 315.869 120.102 315.784 120.027 315.727C119.951 315.67 119.857 315.646 119.763 315.659C119.67 315.672 119.585 315.722 119.528 315.797ZM114.449 321.02C114.195 321.227 113.937 321.429 113.674 321.625C113.467 321.751 113.468 321.972 113.57 322.125C113.671 322.278 113.874 322.362 114.073 322.214C114.353 322.006 114.629 321.791 114.9 321.57C114.936 321.54 114.966 321.504 114.988 321.462C115.01 321.421 115.023 321.376 115.028 321.33C115.033 321.283 115.028 321.236 115.015 321.192C115.001 321.147 114.979 321.105 114.949 321.069C114.92 321.033 114.883 321.003 114.842 320.981C114.801 320.959 114.756 320.945 114.709 320.941C114.663 320.936 114.616 320.941 114.571 320.954C114.527 320.968 114.485 320.99 114.449 321.02ZM72.1118 280.686C73.1645 279.233 74.3482 277.879 75.6479 276.642C75.6817 276.609 75.7089 276.571 75.7278 276.528C75.7467 276.486 75.757 276.44 75.7582 276.393C75.7593 276.346 75.7513 276.3 75.7345 276.256C75.7177 276.213 75.6925 276.173 75.6603 276.139C75.6281 276.105 75.5895 276.078 75.5468 276.059C75.5042 276.04 75.4582 276.03 75.4115 276.029C75.3648 276.028 75.3183 276.036 75.2748 276.052C75.2312 276.069 75.1914 276.094 75.1576 276.127C73.8262 277.394 72.6138 278.781 71.5356 280.27C71.5082 280.307 71.4886 280.35 71.4778 280.396C71.467 280.441 71.4652 280.488 71.4726 280.534C71.48 280.58 71.4965 280.625 71.5209 280.664C71.5454 280.704 71.5775 280.739 71.6154 280.766C71.6532 280.793 71.696 280.813 71.7415 280.824C71.7869 280.835 71.834 280.836 71.8801 280.829C71.9262 280.822 71.9704 280.805 72.0102 280.781C72.0499 280.756 72.0845 280.724 72.1118 280.686ZM77.0736 275.371C77.3312 275.15 77.6018 274.935 77.8559 274.735C77.9299 274.676 77.9778 274.591 77.9889 274.497C78 274.404 77.9735 274.309 77.9151 274.235C77.8568 274.161 77.7714 274.113 77.6777 274.102C77.5841 274.091 77.4898 274.118 77.4157 274.176C77.1556 274.381 76.8782 274.602 76.6107 274.831C76.5753 274.861 76.5462 274.899 76.525 274.94C76.5039 274.982 76.4912 275.027 76.4876 275.074C76.484 275.12 76.4896 275.167 76.5042 275.212C76.5187 275.256 76.5418 275.297 76.5722 275.333C76.6026 275.368 76.6396 275.397 76.6813 275.418C76.7229 275.439 76.7683 275.452 76.8149 275.456C76.8615 275.459 76.9083 275.454 76.9527 275.439C76.9971 275.425 77.0381 275.401 77.0736 275.371Z" fill="#EDDDD8"/>
<path d="M96.0001 270.048C80.5875 270.048 68.0484 282.587 68.0484 298C68.0484 313.413 80.5875 325.952 96.0001 325.952C111.413 325.952 123.952 313.413 123.952 298C123.952 282.588 111.413 270.048 96.0001 270.048ZM96.0001 325.24C80.9796 325.24 68.7597 313.021 68.7597 298C68.7597 282.98 80.9796 270.759 96.0001 270.759C111.021 270.759 123.24 282.98 123.24 298C123.24 313.021 111.021 325.24 96.0001 325.24Z" fill="#EDDDD8"/>
<path d="M80.7022 284.14C79.2868 284.14 78.1352 285.291 78.1352 286.706C78.1352 288.122 79.2868 289.273 80.7022 289.273C82.1176 289.273 83.269 288.122 83.269 286.706C83.269 285.291 82.1175 284.14 80.7022 284.14ZM80.7022 288.562C79.679 288.562 78.8464 287.73 78.8464 286.706C78.8464 285.683 79.679 284.851 80.7022 284.851C81.7254 284.851 82.5579 285.683 82.5579 286.706C82.5577 287.73 81.7254 288.562 80.7022 288.562ZM98.2207 277.261C96.8053 277.261 95.6537 278.412 95.6537 279.827C95.6537 281.243 96.8053 282.394 98.2207 282.394C99.6359 282.394 100.787 281.243 100.787 279.827C100.787 278.412 99.636 277.261 98.2207 277.261ZM98.2207 281.683C97.1975 281.683 96.3649 280.851 96.3649 279.827C96.3649 278.804 97.1975 277.972 98.2207 277.972C99.2439 277.972 100.076 278.804 100.076 279.827C100.076 280.851 99.244 281.683 98.2207 281.683ZM102.84 298.527C101.424 298.527 100.273 299.679 100.273 301.094C100.273 302.51 101.424 303.661 102.84 303.661C104.255 303.661 105.406 302.509 105.406 301.094C105.406 299.679 104.255 298.527 102.84 298.527ZM102.84 302.95C101.816 302.95 100.984 302.117 100.984 301.094C100.984 300.071 101.816 299.238 102.84 299.238C103.863 299.238 104.695 300.071 104.695 301.094C104.695 302.117 103.863 302.95 102.84 302.95ZM93.7454 294.46C93.7454 293.045 92.5938 291.893 91.1784 291.893C89.7629 291.893 88.6115 293.045 88.6115 294.46C88.6115 295.875 89.763 297.027 91.1784 297.027C92.5937 297.027 93.7454 295.875 93.7454 294.46ZM89.3227 294.46C89.3227 293.437 90.155 292.604 91.1784 292.604C92.2017 292.604 93.0341 293.437 93.0341 294.46C93.0341 295.483 92.2016 296.316 91.1784 296.316C90.1552 296.316 89.3227 295.483 89.3227 294.46ZM107.262 309.136C105.847 309.136 104.695 310.287 104.695 311.703C104.695 313.118 105.847 314.27 107.262 314.27C108.678 314.27 109.829 313.118 109.829 311.703C109.829 310.287 108.678 309.136 107.262 309.136ZM107.262 313.559C106.239 313.559 105.406 312.726 105.406 311.703C105.406 310.68 106.239 309.847 107.262 309.847C108.285 309.847 109.118 310.679 109.118 311.703C109.118 312.726 108.285 313.559 107.262 313.559ZM109.474 284.14C108.058 284.14 106.906 285.291 106.906 286.706C106.906 288.122 108.058 289.273 109.474 289.273C110.889 289.273 112.04 288.122 112.04 286.706C112.04 285.291 110.889 284.14 109.474 284.14ZM109.474 288.562C108.45 288.562 107.618 287.73 107.618 286.706C107.618 285.683 108.45 284.851 109.474 284.851C110.497 284.851 111.329 285.683 111.329 286.706C111.329 287.73 110.497 288.562 109.474 288.562ZM116.486 301.859C115.071 301.859 113.919 303.01 113.919 304.426C113.919 305.841 115.071 306.993 116.486 306.993C117.901 306.993 119.053 305.841 119.053 304.426C119.053 303.01 117.901 301.859 116.486 301.859ZM116.486 306.281C115.463 306.281 114.631 305.449 114.631 304.426C114.631 303.402 115.463 302.57 116.486 302.57C117.509 302.57 118.342 303.402 118.342 304.426C118.342 305.449 117.509 306.281 116.486 306.281ZM78.9278 296.316C77.5124 296.316 76.3608 297.467 76.3608 298.883C76.3608 300.298 77.5124 301.45 78.9278 301.45C80.3432 301.45 81.4946 300.298 81.4946 298.883C81.4946 297.467 80.3432 296.316 78.9278 296.316ZM78.9278 300.738C77.9046 300.738 77.072 299.906 77.072 298.883C77.072 297.859 77.9046 297.027 78.9278 297.027C79.951 297.027 80.7835 297.859 80.7835 298.883C80.7835 299.906 79.951 300.738 78.9278 300.738ZM92.4588 312.468C91.0434 312.468 89.8918 313.619 89.8918 315.034C89.8918 316.45 91.0434 317.601 92.4588 317.601C93.8742 317.601 95.0256 316.45 95.0256 315.034C95.0257 313.619 93.8742 312.468 92.4588 312.468ZM92.4588 316.89C91.4356 316.89 90.603 316.058 90.603 315.034C90.603 314.011 91.4355 313.179 92.4588 313.179C93.482 313.179 94.3145 314.011 94.3145 315.034C94.3145 316.058 93.4821 316.89 92.4588 316.89Z" fill="#EDDDD8"/>
</g>
<g clip-path="url(#clip2_1657_2351)">
<path d="M342.186 710.962C341.899 710.76 341.618 710.55 341.343 710.333C341.306 710.304 341.276 710.268 341.253 710.228C341.23 710.187 341.216 710.142 341.21 710.096C341.205 710.049 341.208 710.002 341.221 709.957C341.234 709.912 341.255 709.87 341.284 709.834C341.313 709.797 341.349 709.766 341.39 709.744C341.431 709.721 341.475 709.706 341.522 709.701C341.568 709.695 341.615 709.699 341.66 709.712C341.705 709.724 341.747 709.746 341.784 709.775C342.049 709.984 342.32 710.186 342.597 710.381C342.635 710.408 342.667 710.442 342.692 710.482C342.717 710.521 342.734 710.565 342.742 710.611C342.75 710.657 342.748 710.704 342.738 710.75C342.728 710.795 342.709 710.838 342.682 710.877C342.655 710.915 342.62 710.947 342.581 710.972C342.541 710.997 342.497 711.014 342.451 711.022C342.405 711.03 342.358 711.028 342.313 711.018C342.267 711.008 342.224 710.989 342.186 710.962ZM339.843 709.087C338.473 707.854 337.238 706.478 336.16 704.982C336.106 704.905 336.085 704.811 336.101 704.719C336.116 704.627 336.168 704.544 336.243 704.49C336.319 704.435 336.413 704.413 336.506 704.427C336.598 704.441 336.681 704.491 336.737 704.566C337.785 706.02 338.986 707.359 340.319 708.558C340.389 708.621 340.431 708.709 340.436 708.803C340.441 708.897 340.409 708.99 340.346 709.06C340.283 709.13 340.194 709.172 340.1 709.177C340.006 709.182 339.914 709.15 339.843 709.087ZM380.529 707.797C379.444 709.232 378.231 710.564 376.903 711.777C376.868 711.809 376.84 711.847 376.82 711.889C376.801 711.931 376.789 711.977 376.787 712.024C376.785 712.07 376.792 712.117 376.808 712.161C376.824 712.205 376.848 712.245 376.88 712.28C376.911 712.314 376.949 712.342 376.992 712.362C377.034 712.382 377.08 712.393 377.126 712.395C377.173 712.397 377.22 712.39 377.264 712.374C377.307 712.358 377.348 712.334 377.382 712.302C378.743 711.06 379.986 709.695 381.097 708.226C381.153 708.15 381.178 708.055 381.165 707.962C381.152 707.868 381.102 707.784 381.027 707.727C380.952 707.67 380.857 707.646 380.763 707.659C380.67 707.672 380.585 707.722 380.529 707.797ZM375.449 713.019C375.195 713.227 374.937 713.429 374.674 713.625C374.467 713.751 374.468 713.972 374.57 714.125C374.671 714.278 374.874 714.362 375.073 714.214C375.354 714.006 375.629 713.791 375.9 713.569C375.936 713.54 375.966 713.503 375.988 713.462C376.01 713.421 376.023 713.376 376.028 713.33C376.033 713.283 376.028 713.236 376.015 713.192C376.001 713.147 375.979 713.105 375.949 713.069C375.92 713.033 375.883 713.003 375.842 712.981C375.801 712.959 375.756 712.945 375.709 712.941C375.663 712.936 375.616 712.941 375.571 712.954C375.527 712.968 375.485 712.99 375.449 713.019ZM333.112 672.686C334.165 671.233 335.348 669.879 336.648 668.642C336.682 668.609 336.709 668.571 336.728 668.528C336.747 668.486 336.757 668.44 336.758 668.393C336.759 668.346 336.751 668.3 336.735 668.256C336.718 668.213 336.693 668.173 336.66 668.139C336.628 668.105 336.59 668.078 336.547 668.059C336.504 668.04 336.458 668.03 336.412 668.029C336.365 668.028 336.318 668.036 336.275 668.052C336.231 668.069 336.191 668.094 336.158 668.127C334.826 669.394 333.614 670.781 332.536 672.269C332.508 672.307 332.489 672.35 332.478 672.396C332.467 672.441 332.465 672.488 332.473 672.534C332.48 672.58 332.497 672.625 332.521 672.664C332.545 672.704 332.578 672.739 332.615 672.766C332.653 672.793 332.696 672.813 332.742 672.824C332.787 672.835 332.834 672.836 332.88 672.829C332.926 672.822 332.97 672.805 333.01 672.781C333.05 672.756 333.085 672.724 333.112 672.686ZM338.074 667.371C338.331 667.15 338.602 666.935 338.856 666.735C338.93 666.676 338.978 666.591 338.989 666.497C339 666.403 338.974 666.309 338.915 666.235C338.857 666.161 338.771 666.113 338.678 666.102C338.584 666.091 338.49 666.118 338.416 666.176C338.156 666.381 337.878 666.602 337.611 666.831C337.575 666.861 337.546 666.899 337.525 666.94C337.504 666.982 337.491 667.027 337.488 667.074C337.484 667.12 337.49 667.167 337.504 667.212C337.519 667.256 337.542 667.297 337.572 667.332C337.603 667.368 337.64 667.397 337.681 667.418C337.723 667.439 337.768 667.452 337.815 667.456C337.862 667.459 337.908 667.454 337.953 667.439C337.997 667.425 338.038 667.401 338.074 667.371Z" fill="#EDDDD8"/>
<path d="M357 662.048C341.588 662.048 329.048 674.587 329.048 690C329.048 705.413 341.588 717.952 357 717.952C372.413 717.952 384.952 705.413 384.952 690C384.952 674.588 372.413 662.048 357 662.048ZM357 717.24C341.98 717.24 329.76 705.021 329.76 690C329.76 674.98 341.98 662.759 357 662.759C372.021 662.759 384.241 674.98 384.241 690C384.241 705.021 372.021 717.24 357 717.24Z" fill="#EDDDD8"/>
<path d="M341.702 676.14C340.287 676.14 339.135 677.291 339.135 678.706C339.135 680.122 340.287 681.273 341.702 681.273C343.118 681.273 344.269 680.122 344.269 678.706C344.269 677.291 343.118 676.14 341.702 676.14ZM341.702 680.562C340.679 680.562 339.846 679.73 339.846 678.706C339.846 677.683 340.679 676.851 341.702 676.851C342.725 676.851 343.558 677.683 343.558 678.706C343.558 679.73 342.725 680.562 341.702 680.562ZM359.221 669.261C357.805 669.261 356.654 670.412 356.654 671.827C356.654 673.243 357.805 674.394 359.221 674.394C360.636 674.394 361.788 673.243 361.788 671.827C361.788 670.412 360.636 669.261 359.221 669.261ZM359.221 673.683C358.198 673.683 357.365 672.851 357.365 671.827C357.365 670.804 358.198 669.972 359.221 669.972C360.244 669.972 361.076 670.804 361.076 671.827C361.076 672.851 360.244 673.683 359.221 673.683ZM363.84 690.527C362.424 690.527 361.273 691.679 361.273 693.094C361.273 694.51 362.424 695.661 363.84 695.661C365.255 695.661 366.406 694.509 366.406 693.094C366.406 691.679 365.255 690.527 363.84 690.527ZM363.84 694.95C362.816 694.95 361.984 694.117 361.984 693.094C361.984 692.071 362.816 691.238 363.84 691.238C364.863 691.238 365.695 692.071 365.695 693.094C365.695 694.117 364.863 694.95 363.84 694.95ZM354.745 686.46C354.745 685.045 353.594 683.893 352.178 683.893C350.763 683.893 349.612 685.045 349.612 686.46C349.612 687.875 350.763 689.027 352.178 689.027C353.594 689.027 354.745 687.875 354.745 686.46ZM350.323 686.46C350.323 685.437 351.155 684.604 352.178 684.604C353.202 684.604 354.034 685.437 354.034 686.46C354.034 687.483 353.202 688.316 352.178 688.316C351.155 688.316 350.323 687.483 350.323 686.46ZM368.262 701.136C366.847 701.136 365.695 702.287 365.695 703.703C365.695 705.118 366.847 706.27 368.262 706.27C369.678 706.27 370.829 705.118 370.829 703.703C370.829 702.287 369.678 701.136 368.262 701.136ZM368.262 705.559C367.239 705.559 366.406 704.726 366.406 703.703C366.406 702.68 367.239 701.847 368.262 701.847C369.285 701.847 370.118 702.679 370.118 703.703C370.118 704.726 369.285 705.559 368.262 705.559ZM370.474 676.14C369.058 676.14 367.906 677.291 367.906 678.706C367.906 680.122 369.058 681.273 370.474 681.273C371.889 681.273 373.04 680.122 373.04 678.706C373.04 677.291 371.889 676.14 370.474 676.14ZM370.474 680.562C369.45 680.562 368.618 679.73 368.618 678.706C368.618 677.683 369.45 676.851 370.474 676.851C371.497 676.851 372.329 677.683 372.329 678.706C372.329 679.73 371.497 680.562 370.474 680.562ZM377.486 693.859C376.071 693.859 374.919 695.01 374.919 696.426C374.919 697.841 376.071 698.993 377.486 698.993C378.901 698.993 380.053 697.841 380.053 696.426C380.053 695.01 378.901 693.859 377.486 693.859ZM377.486 698.281C376.463 698.281 375.631 697.449 375.631 696.426C375.631 695.402 376.463 694.57 377.486 694.57C378.509 694.57 379.342 695.402 379.342 696.426C379.342 697.449 378.509 698.281 377.486 698.281ZM339.928 688.316C338.512 688.316 337.361 689.467 337.361 690.883C337.361 692.298 338.512 693.45 339.928 693.45C341.343 693.45 342.495 692.298 342.495 690.883C342.495 689.467 341.343 688.316 339.928 688.316ZM339.928 692.738C338.905 692.738 338.072 691.906 338.072 690.883C338.072 689.859 338.905 689.027 339.928 689.027C340.951 689.027 341.784 689.859 341.784 690.883C341.784 691.906 340.951 692.738 339.928 692.738ZM353.459 704.468C352.043 704.468 350.892 705.619 350.892 707.034C350.892 708.45 352.043 709.601 353.459 709.601C354.874 709.601 356.026 708.45 356.026 707.034C356.026 705.619 354.874 704.468 353.459 704.468ZM353.459 708.89C352.436 708.89 351.603 708.058 351.603 707.034C351.603 706.011 352.436 705.179 353.459 705.179C354.482 705.179 355.315 706.011 355.315 707.034C355.315 708.058 354.482 708.89 353.459 708.89Z" fill="#EDDDD8"/>
</g>
<path d="M208.621 39.9883C208.789 39.6235 208.841 39.2161 208.771 38.8208C208.7 38.4255 208.51 38.0613 208.226 37.7772C207.943 37.4931 207.579 37.3027 207.183 37.2316C206.788 37.1606 206.381 37.2123 206.016 37.3798C204.836 37.9121 202.231 40.0632 201.267 41.0259C199.901 42.4036 198.69 43.9278 197.657 45.5708C197.446 45.4802 197.212 45.4548 196.986 45.498C196.761 45.5413 196.553 45.6512 196.39 45.8135L195.404 46.7996L194.989 46.3849C194.493 45.8891 193.82 45.6107 193.119 45.6107C192.418 45.6107 191.745 45.8891 191.249 46.3849L169.388 68.2439C168.891 68.7404 168.612 69.4136 168.611 70.1158C168.611 70.8181 168.889 71.4918 169.385 71.9892L169.8 72.404L168.814 73.3882C168.651 73.551 168.542 73.7587 168.498 73.9845C168.455 74.2103 168.48 74.4439 168.571 74.6552C166.928 75.6881 165.403 76.899 164.026 78.2658C163.064 79.2304 160.913 81.8346 160.381 83.0124C160.243 83.3115 160.183 83.6404 160.205 83.9689C160.227 84.2974 160.332 84.615 160.509 84.8926C160.686 85.1702 160.93 85.3989 161.219 85.5577C161.507 85.7165 161.831 85.8003 162.16 85.8015C162.446 85.8008 162.729 85.7392 162.989 85.6206C164.099 85.1142 166.655 83.0503 167.731 81.9713C169.097 80.5937 170.308 79.0705 171.343 77.4291C171.555 77.5196 171.788 77.5447 172.014 77.501C172.239 77.4574 172.447 77.3472 172.609 77.1845L173.595 76.1983L174.01 76.6131C174.507 77.1084 175.181 77.3863 175.882 77.3857C176.584 77.3851 177.257 77.1061 177.753 76.6099L199.613 54.7504C200.109 54.2544 200.387 53.5817 200.387 52.8804C200.387 52.179 200.109 51.5064 199.613 51.0103L199.198 50.5955L200.184 49.6094C200.346 49.4468 200.456 49.2395 200.499 49.0141C200.543 48.7888 200.518 48.5555 200.428 48.3444C202.069 47.309 203.592 46.0974 204.97 44.7309C206.052 43.6528 208.116 41.1 208.621 39.9883ZM167.168 81.4087C166.177 82.3996 163.659 84.4396 162.659 84.8954C162.441 84.9968 162.198 85.0288 161.961 84.9871C161.725 84.9454 161.507 84.832 161.338 84.6623C161.168 84.4927 161.055 84.2749 161.013 84.0387C160.971 83.8024 161.003 83.559 161.105 83.3415C161.564 82.3255 163.571 79.8468 164.588 78.8292C165.946 77.4812 167.452 76.2907 169.077 75.2803L170.72 76.9247C169.707 78.5472 168.516 80.0512 167.168 81.4087ZM172.046 76.6223C171.979 76.687 171.889 76.7231 171.795 76.7231C171.702 76.7231 171.612 76.687 171.544 76.6223L169.376 74.454C169.31 74.3872 169.272 74.2969 169.272 74.2028C169.272 74.1086 169.31 74.0183 169.376 73.9515L170.362 72.9658L173.032 75.6353L172.046 76.6223ZM199.05 54.1902L177.192 76.0477C176.845 76.3945 176.374 76.5896 175.884 76.5902C175.393 76.5908 174.923 76.3968 174.575 76.0509L169.948 71.4243C169.602 71.0765 169.408 70.6057 169.409 70.1151C169.41 69.6246 169.605 69.1543 169.952 68.8073L191.811 46.9482C192.158 46.602 192.628 46.4075 193.117 46.4075C193.607 46.4075 194.077 46.602 194.424 46.9482L199.051 51.5749C199.397 51.9216 199.592 52.3916 199.592 52.8816C199.592 53.3716 199.397 53.8415 199.051 54.1882L199.05 54.1902ZM199.622 49.0504L198.635 50.0365L195.966 47.367L196.952 46.3809C197.019 46.3145 197.109 46.2772 197.203 46.2772C197.298 46.2772 197.388 46.3145 197.454 46.3809L199.623 48.5492C199.688 48.6156 199.725 48.7051 199.725 48.7983C199.724 48.8914 199.688 48.9809 199.622 49.0472L199.622 49.0504ZM199.924 47.7236L198.28 46.0765C199.291 44.452 200.481 42.9467 201.829 41.5893C202.847 40.572 205.325 38.5651 206.343 38.1053C206.561 38.0037 206.804 37.9716 207.041 38.0132C207.277 38.0548 207.495 38.1681 207.665 38.3379C207.834 38.5076 207.948 38.7255 207.989 38.9619C208.031 39.1983 207.999 39.4417 207.897 39.6592C207.441 40.6597 205.401 43.1782 204.41 44.1695C203.052 45.5168 201.548 46.7079 199.924 47.7204L199.924 47.7236Z" fill="#EDDDD8"/>
<path d="M181.91 58.8476L172.101 68.6572C171.719 69.02 171.472 69.5018 171.4 70.0234C171.373 70.2896 171.406 70.5585 171.498 70.8098C171.591 71.0611 171.739 71.288 171.932 71.4733L173.565 73.1069C173.602 73.145 173.646 73.1753 173.695 73.1962C173.743 73.2171 173.796 73.2281 173.848 73.2285C173.901 73.229 173.954 73.2189 174.003 73.1989C174.052 73.1788 174.096 73.1493 174.134 73.1119C174.171 73.0744 174.201 73.03 174.221 72.981C174.241 72.932 174.251 72.8796 174.25 72.8266C174.25 72.7737 174.239 72.7215 174.218 72.6729C174.197 72.6242 174.167 72.5803 174.129 72.5435L172.495 70.9099C172.386 70.809 172.301 70.6839 172.249 70.5446C172.196 70.4052 172.177 70.2556 172.192 70.1075C172.246 69.767 172.413 69.4546 172.666 69.221L182.476 59.411C182.513 59.3739 182.542 59.3298 182.562 59.2813C182.582 59.2328 182.592 59.1809 182.592 59.1285C182.592 59.0761 182.582 59.0242 182.562 58.9758C182.541 58.9274 182.512 58.8834 182.475 58.8464C182.438 58.8094 182.394 58.7801 182.345 58.7602C182.297 58.7402 182.245 58.73 182.192 58.7301C182.14 58.7302 182.088 58.7406 182.04 58.7608C181.991 58.781 181.947 58.8105 181.91 58.8476Z" fill="#EDDDD8"/>
<path d="M30.0117 205.621C30.3765 205.789 30.784 205.841 31.1793 205.771C31.5746 205.7 31.9388 205.51 32.2229 205.226C32.507 204.943 32.6974 204.579 32.7684 204.183C32.8395 203.788 32.7878 203.381 32.6203 203.016C32.088 201.836 29.9368 199.23 28.9742 198.267C27.5965 196.901 26.0723 195.69 24.4292 194.657C24.5199 194.446 24.5453 194.212 24.502 193.986C24.4588 193.761 24.3489 193.553 24.1866 193.39L23.2004 192.404L23.6152 191.989C24.1109 191.493 24.3894 190.82 24.3894 190.119C24.3894 189.418 24.1109 188.745 23.6152 188.249L1.75613 166.388C1.25968 165.891 0.586433 165.612 -0.11578 165.611C-0.817997 165.611 -1.49178 165.889 -1.98918 166.384L-2.40395 166.8L-3.38809 165.814C-3.55099 165.651 -3.75868 165.541 -3.98447 165.498C-4.21026 165.455 -4.44382 165.48 -4.65512 165.571C-5.68806 163.928 -6.89892 162.403 -8.26577 161.025C-9.23038 160.064 -11.8346 157.912 -13.0124 157.381C-13.3115 157.243 -13.6403 157.183 -13.9688 157.205C-14.2973 157.227 -14.6149 157.332 -14.8925 157.509C-15.1701 157.686 -15.3988 157.93 -15.5576 158.219C-15.7164 158.507 -15.8002 158.831 -15.8014 159.16C-15.8008 159.446 -15.7391 159.729 -15.6205 159.989C-15.1141 161.099 -13.0502 163.655 -11.9712 164.731C-10.5936 166.097 -9.07047 167.308 -7.42905 168.343C-7.51953 168.554 -7.54459 168.788 -7.50098 169.014C-7.45737 169.239 -7.3471 169.447 -7.18441 169.609L-6.19827 170.595L-6.61305 171.01C-7.10836 171.507 -7.38621 172.18 -7.38561 172.882C-7.38501 173.584 -7.10602 174.257 -6.60986 174.753L15.2496 196.613C15.7457 197.108 16.4183 197.387 17.1197 197.387C17.821 197.387 18.4937 197.108 18.9897 196.613L19.4045 196.198L20.3907 197.184C20.5532 197.346 20.7605 197.456 20.9859 197.499C21.2113 197.543 21.4445 197.518 21.6557 197.428C22.691 199.069 23.9027 200.592 25.2691 201.97C26.3473 203.052 28.9001 205.116 30.0117 205.621ZM-11.4086 164.168C-12.3996 163.177 -14.4396 160.659 -14.8954 159.658C-14.9967 159.441 -15.0287 159.198 -14.987 158.961C-14.9453 158.725 -14.8319 158.507 -14.6623 158.338C-14.4926 158.168 -14.2749 158.055 -14.0386 158.013C-13.8023 157.971 -13.5589 158.003 -13.3415 158.105C-12.3254 158.564 -9.84676 160.57 -8.82915 161.588C-7.48109 162.946 -6.2906 164.451 -5.28027 166.076L-6.92463 167.72C-8.54711 166.707 -10.0511 165.516 -11.4086 164.168ZM-6.62221 169.046C-6.68692 168.979 -6.72304 168.889 -6.72304 168.795C-6.72304 168.702 -6.68692 168.612 -6.62221 168.544L-4.45391 166.376C-4.38717 166.31 -4.29685 166.272 -4.2027 166.272C-4.10855 166.272 -4.01823 166.31 -3.95148 166.376L-2.96575 167.362L-5.63528 170.032L-6.62221 169.046ZM15.8098 196.05L-6.04766 174.191C-6.39444 173.845 -6.5895 173.374 -6.5901 172.884C-6.5907 172.393 -6.39677 171.923 -6.05085 171.575L-1.42419 166.948C-1.0764 166.602 -0.605621 166.408 -0.115067 166.409C0.375488 166.41 0.845791 166.605 1.19274 166.951L23.0518 188.811C23.398 189.158 23.5925 189.627 23.5925 190.117C23.5925 190.607 23.398 191.077 23.0518 191.424L18.4252 196.051C18.0785 196.397 17.6085 196.592 17.1185 196.592C16.6285 196.592 16.1585 196.397 15.8118 196.051L15.8098 196.05ZM20.9497 196.621L19.9635 195.635L22.6331 192.966L23.6192 193.952C23.6856 194.019 23.7228 194.109 23.7228 194.203C23.7228 194.297 23.6856 194.388 23.6192 194.454L21.4509 196.623C21.3844 196.688 21.295 196.725 21.2018 196.724C21.1086 196.724 21.0192 196.688 20.9529 196.622L20.9497 196.621ZM22.2765 196.924L23.9236 195.28C25.5481 196.291 27.0533 197.481 28.4108 198.829C29.428 199.847 31.4349 202.325 31.8947 203.343C31.9963 203.561 32.0285 203.804 31.9869 204.04C31.9453 204.277 31.8319 204.495 31.6622 204.664C31.4925 204.834 31.2746 204.948 31.0382 204.989C30.8018 205.031 30.5583 204.999 30.3408 204.897C29.3404 204.441 26.8218 202.401 25.8305 201.41C24.4832 200.052 23.2922 198.547 22.2796 196.924L22.2765 196.924Z" fill="#EDDDD8"/>
<path d="M11.1525 178.91L1.34296 169.101C0.980123 168.719 0.498371 168.472 -0.0232811 168.4C-0.289467 168.373 -0.558425 168.406 -0.809681 168.498C-1.06094 168.59 -1.28787 168.739 -1.4732 168.932L-3.10679 170.565C-3.14484 170.602 -3.1752 170.646 -3.19608 170.695C-3.21696 170.743 -3.22795 170.796 -3.22841 170.848C-3.22887 170.901 -3.21879 170.954 -3.19876 171.003C-3.17873 171.052 -3.14914 171.096 -3.11173 171.134C-3.07432 171.171 -3.02983 171.201 -2.98087 171.221C-2.9319 171.241 -2.87943 171.251 -2.82653 171.25C-2.77362 171.25 -2.72134 171.239 -2.67273 171.218C-2.62412 171.197 -2.58016 171.167 -2.5434 171.129L-0.909803 169.495C-0.80886 169.386 -0.683749 169.301 -0.544434 169.249C-0.405118 169.196 -0.255447 169.177 -0.10735 169.192C0.23313 169.246 0.545509 169.413 0.779172 169.666L10.5891 179.476C10.6263 179.513 10.6703 179.542 10.7188 179.562C10.7673 179.582 10.8192 179.592 10.8716 179.592C10.9241 179.592 10.976 179.582 11.0244 179.562C11.0727 179.541 11.1167 179.512 11.1537 179.475C11.1907 179.438 11.22 179.394 11.24 179.345C11.2599 179.297 11.2701 179.245 11.27 179.192C11.2699 179.14 11.2595 179.088 11.2393 179.04C11.2191 178.991 11.1896 178.947 11.1525 178.91Z" fill="#EDDDD8"/>
<g clip-path="url(#clip3_1657_2351)">
<path d="M260.927 425.665C261.751 425.95 262.651 425.918 263.452 425.575C264.253 425.232 264.897 424.602 265.258 423.809C270.351 413.057 279.008 404.4 289.76 399.308C290.553 398.947 291.182 398.302 291.526 397.501C291.869 396.7 291.901 395.8 291.616 394.977L291.418 394.432C291.245 393.955 290.978 393.518 290.632 393.147C290.287 392.775 289.871 392.476 289.408 392.269C288.945 392.061 288.445 391.948 287.938 391.937C287.431 391.926 286.927 392.017 286.456 392.205C280.046 394.746 274.224 398.572 269.348 403.447C264.473 408.323 260.647 414.145 258.106 420.555C257.92 421.026 257.83 421.53 257.841 422.037C257.853 422.544 257.966 423.043 258.173 423.505C258.381 423.968 258.679 424.384 259.05 424.729C259.421 425.075 259.857 425.343 260.333 425.517L260.927 425.665Z" stroke="#EDDDD8" stroke-linecap="round" stroke-linejoin="round"/>
<path d="M264.411 425.016C264.79 424.689 265.096 424.287 265.308 423.834C270.399 413.067 279.067 404.399 289.834 399.308C290.285 399.098 290.685 398.794 291.009 398.417L304.3 435.577C304.433 435.957 304.457 436.366 304.367 436.759C304.278 437.151 304.08 437.51 303.795 437.795C303.511 438.08 303.151 438.278 302.759 438.367C302.366 438.456 301.957 438.433 301.577 438.299L264.398 425.003L264.411 425.016Z" stroke="#EDDDD8" stroke-linecap="round" stroke-linejoin="round"/>
<path d="M289.543 416.688C291.487 414.743 291.487 411.591 289.543 409.647C287.599 407.702 284.446 407.702 282.502 409.647C280.558 411.591 280.558 414.743 282.502 416.688C284.446 418.632 287.599 418.632 289.543 416.688Z" stroke="#EDDDD8" stroke-linecap="round" stroke-linejoin="round"/>
<path d="M274.236 428.517C274.256 427.73 274.462 426.959 274.838 426.267C275.214 425.574 275.748 424.981 276.398 424.536C277.047 424.091 277.793 423.806 278.574 423.705C279.355 423.604 280.149 423.689 280.891 423.955C281.632 424.22 282.3 424.658 282.84 425.231C283.379 425.805 283.775 426.499 283.995 427.255C284.214 428.011 284.251 428.809 284.102 429.582C283.954 430.356 283.624 431.083 283.139 431.704L274.236 428.517ZM301.936 428.957C301.31 429.414 300.586 429.718 299.821 429.846C299.056 429.974 298.273 429.922 297.532 429.695C296.791 429.467 296.113 429.07 295.552 428.534C294.992 427.999 294.564 427.34 294.302 426.61C294.04 425.881 293.952 425.1 294.045 424.33C294.138 423.561 294.409 422.823 294.836 422.177C295.264 421.53 295.836 420.992 296.508 420.605C297.18 420.218 297.932 419.993 298.706 419.948L301.936 428.957Z" stroke="#EDDDD8" stroke-linecap="round" stroke-linejoin="round"/>
</g>
<g clip-path="url(#clip4_1657_2351)">
<path d="M6.53075 517.927C6.24543 518.751 6.27755 519.651 6.62083 520.452C6.96412 521.253 7.59386 521.897 8.38691 522.258C19.1387 527.351 27.796 536.008 32.8882 546.76C33.2494 547.553 33.8935 548.182 34.6945 548.526C35.4955 548.869 36.3958 548.901 37.2192 548.616L37.7637 548.418C38.2405 548.245 38.6777 547.978 39.0493 547.632C39.421 547.287 39.7195 546.871 39.9273 546.408C40.135 545.945 40.2477 545.445 40.2586 544.938C40.2696 544.431 40.1786 543.927 39.991 543.456C37.4502 537.046 33.6243 531.224 28.7487 526.348C23.8732 521.473 18.0512 517.647 11.6414 515.106C11.1699 514.92 10.666 514.83 10.1592 514.841C9.65239 514.853 9.15305 514.966 8.69059 515.173C8.22813 515.381 7.81191 515.679 7.46647 516.05C7.12103 516.421 6.85336 516.857 6.67925 517.333L6.53075 517.927Z" stroke="#EDDDD8" stroke-linecap="round" stroke-linejoin="round"/>
<path d="M7.18032 521.411C7.50652 521.79 7.90926 522.096 8.36207 522.308C19.1289 527.399 27.7967 536.067 32.8881 546.834C33.0982 547.285 33.4019 547.685 33.779 548.009L-3.3812 561.3C-3.76086 561.433 -4.17052 561.457 -4.56294 561.367C-4.95536 561.278 -5.31457 561.08 -5.59914 560.795C-5.88371 560.511 -6.08206 560.151 -6.17131 559.759C-6.26056 559.366 -6.23707 558.957 -6.10356 558.577L7.19269 521.398L7.18032 521.411Z" stroke="#EDDDD8" stroke-linecap="round" stroke-linejoin="round"/>
<path d="M15.5083 546.543C17.4526 548.487 20.605 548.487 22.5493 546.543C24.4936 544.599 24.4936 541.446 22.5493 539.502C20.605 537.558 17.4526 537.558 15.5083 539.502C13.564 541.446 13.564 544.599 15.5083 546.543Z" stroke="#EDDDD8" stroke-linecap="round" stroke-linejoin="round"/>
<path d="M3.67846 531.236C4.46578 531.256 5.23718 531.462 5.92931 531.838C6.62143 532.214 7.21453 532.748 7.65989 533.398C8.10524 534.047 8.39015 534.793 8.49121 535.574C8.59226 536.355 8.50658 537.149 8.2412 537.891C7.97582 538.632 7.53832 539.3 6.96463 539.84C6.39093 540.379 5.69742 540.775 4.94105 540.995C4.18468 541.214 3.38703 541.251 2.61363 541.102C1.84022 540.954 1.11312 540.624 0.492057 540.139L3.67846 531.236ZM3.23917 558.936C2.78236 558.31 2.47782 557.586 2.34974 556.821C2.22165 556.056 2.27354 555.273 2.50128 554.532C2.72902 553.791 3.12635 553.113 3.66172 552.552C4.1971 551.992 4.85578 551.564 5.58549 551.302C6.3152 551.04 7.09584 550.952 7.86546 551.045C8.63507 551.138 9.37248 551.409 10.0191 551.836C10.6658 552.264 11.2039 552.836 11.5907 553.508C11.9776 554.18 12.2025 554.932 12.2477 555.706L3.23917 558.936Z" stroke="#EDDDD8" stroke-linecap="round" stroke-linejoin="round"/>
</g>
<g clip-path="url(#clip5_1657_2351)">
<path d="M0.185884 792.962C-0.100657 792.76 -0.381742 792.55 -0.657068 792.333C-0.693727 792.304 -0.724328 792.268 -0.747121 792.228C-0.769914 792.187 -0.784452 792.142 -0.789907 792.096C-0.795362 792.049 -0.791624 792.002 -0.778909 791.957C-0.766193 791.912 -0.74475 791.87 -0.715803 791.834C-0.686902 791.797 -0.651046 791.766 -0.61029 791.744C-0.569532 791.721 -0.524674 791.706 -0.478284 791.701C-0.431894 791.695 -0.384884 791.699 -0.339945 791.712C-0.295006 791.724 -0.253022 791.746 -0.216396 791.775C0.0491686 791.984 0.320222 792.186 0.596478 792.381C0.634605 792.408 0.667049 792.442 0.691957 792.482C0.716866 792.521 0.73375 792.565 0.741647 792.611C0.749543 792.657 0.748298 792.704 0.737981 792.75C0.727664 792.795 0.708478 792.838 0.681518 792.877C0.654558 792.915 0.620352 792.947 0.580853 792.972C0.541355 792.997 0.497336 793.014 0.451313 793.022C0.40529 793.03 0.358161 793.028 0.312619 793.018C0.267076 793.008 0.224012 792.989 0.185884 792.962ZM-2.1566 791.087C-3.52754 789.854 -4.76254 788.478 -5.84046 786.982C-5.89383 786.905 -5.91495 786.811 -5.89926 786.719C-5.88356 786.627 -5.83232 786.544 -5.75658 786.49C-5.68084 786.435 -5.58667 786.413 -5.49441 786.427C-5.40214 786.441 -5.31917 786.491 -5.2634 786.566C-4.21519 788.02 -3.01431 789.359 -1.68126 790.558C-1.61111 790.621 -1.56889 790.709 -1.56386 790.803C-1.55884 790.897 -1.59142 790.99 -1.65446 791.06C-1.71749 791.13 -1.80581 791.172 -1.89998 791.177C-1.99415 791.182 -2.08646 791.15 -2.1566 791.087ZM38.5285 789.797C37.4443 791.232 36.2306 792.564 34.9026 793.777C34.8681 793.809 34.8402 793.847 34.8203 793.889C34.8005 793.931 34.7892 793.977 34.7871 794.024C34.785 794.07 34.7921 794.117 34.808 794.161C34.8239 794.205 34.8483 794.245 34.8799 794.28C34.9113 794.314 34.9493 794.342 34.9916 794.362C35.0339 794.382 35.0797 794.393 35.1263 794.395C35.173 794.397 35.2196 794.39 35.2635 794.374C35.3074 794.358 35.3477 794.334 35.3822 794.302C36.7425 793.06 37.9858 791.695 39.0965 790.226C39.1533 790.15 39.1779 790.055 39.1648 789.962C39.1518 789.868 39.1021 789.784 39.0268 789.727C38.9515 789.67 38.8567 789.646 38.7632 789.659C38.6698 789.672 38.5853 789.722 38.5285 789.797ZM33.4489 795.019C33.1953 795.227 32.937 795.429 32.6741 795.625C32.4674 795.751 32.4678 795.972 32.5695 796.125C32.6712 796.278 32.8742 796.362 33.0728 796.214C33.3535 796.006 33.6292 795.791 33.8995 795.569C33.9356 795.54 33.9656 795.503 33.9876 795.462C34.0097 795.421 34.0234 795.376 34.028 795.33C34.0326 795.283 34.028 795.236 34.0145 795.192C34.001 795.147 33.9788 795.105 33.9492 795.069C33.9196 795.033 33.8832 795.003 33.8421 794.981C33.8009 794.959 33.7558 794.945 33.7094 794.941C33.6629 794.936 33.616 794.941 33.5713 794.954C33.5266 794.968 33.485 794.99 33.4489 795.019ZM-8.88819 754.686C-7.83548 753.233 -6.65184 751.879 -5.3521 750.642C-5.31828 750.609 -5.29113 750.571 -5.27221 750.528C-5.25329 750.486 -5.24296 750.44 -5.24181 750.393C-5.24066 750.346 -5.24872 750.3 -5.26552 750.256C-5.28233 750.213 -5.30754 750.173 -5.33974 750.139C-5.37193 750.105 -5.41048 750.078 -5.45316 750.059C-5.49585 750.04 -5.54184 750.03 -5.58852 750.029C-5.6352 750.028 -5.68165 750.036 -5.72522 750.052C-5.76878 750.069 -5.80861 750.094 -5.84243 750.127C-7.17384 751.394 -8.38623 752.781 -9.46438 754.269C-9.49175 754.307 -9.5114 754.35 -9.52221 754.396C-9.53302 754.441 -9.53477 754.488 -9.52736 754.534C-9.51996 754.58 -9.50354 754.625 -9.47906 754.664C-9.45457 754.704 -9.42249 754.739 -9.38465 754.766C-9.34682 754.793 -9.30396 754.813 -9.25854 754.824C-9.21311 754.835 -9.166 754.836 -9.1199 754.829C-9.0738 754.822 -9.02961 754.805 -8.98985 754.781C-8.95009 754.756 -8.91555 754.724 -8.88819 754.686ZM-3.9264 749.371C-3.66882 749.15 -3.39822 748.935 -3.14415 748.735C-3.07006 748.676 -3.02219 748.591 -3.01108 748.497C-2.99996 748.403 -3.0265 748.309 -3.08487 748.235C-3.14323 748.161 -3.22863 748.113 -3.32229 748.102C-3.41595 748.091 -3.51018 748.118 -3.58427 748.176C-3.84437 748.381 -4.12185 748.602 -4.38927 748.831C-4.42473 748.861 -4.45385 748.899 -4.47498 748.94C-4.4961 748.982 -4.50882 749.027 -4.5124 749.074C-4.51598 749.12 -4.51035 749.167 -4.49584 749.212C-4.48133 749.256 -4.45822 749.297 -4.42783 749.332C-4.39743 749.368 -4.36035 749.397 -4.31871 749.418C-4.27706 749.439 -4.23166 749.452 -4.1851 749.456C-4.13853 749.459 -4.09172 749.454 -4.04734 749.439C-4.00295 749.425 -3.96185 749.401 -3.9264 749.371Z" fill="#EDDDD8"/>
<path d="M15.0001 744.048C-0.412461 744.048 -12.9515 756.587 -12.9515 772C-12.9515 787.413 -0.412461 799.952 15.0001 799.952C30.4126 799.952 42.9518 787.413 42.9518 772C42.9518 756.588 30.4126 744.048 15.0001 744.048ZM15.0001 799.24C-0.0203524 799.24 -12.2403 787.021 -12.2403 772C-12.2403 756.98 -0.0203524 744.759 15.0001 744.759C30.0206 744.759 42.2405 756.98 42.2405 772C42.2405 787.021 30.0206 799.24 15.0001 799.24Z" fill="#EDDDD8"/>
<path d="M-0.297739 758.14C-1.71316 758.14 -2.86477 759.291 -2.86477 760.706C-2.86477 762.122 -1.71316 763.273 -0.297739 763.273C1.11768 763.273 2.26907 762.122 2.26907 760.706C2.26907 759.291 1.11757 758.14 -0.297739 758.14ZM-0.297739 762.562C-1.32094 762.562 -2.1535 761.73 -2.1535 760.706C-2.1535 759.683 -1.32094 758.851 -0.297739 758.851C0.725464 758.851 1.55792 759.683 1.55792 760.706C1.55781 761.73 0.725464 762.562 -0.297739 762.562ZM17.2207 751.261C15.8053 751.261 14.6537 752.412 14.6537 753.827C14.6537 755.243 15.8053 756.394 17.2207 756.394C18.6359 756.394 19.7876 755.243 19.7876 753.827C19.7876 752.412 18.6361 751.261 17.2207 751.261ZM17.2207 755.683C16.1975 755.683 15.365 754.851 15.365 753.827C15.365 752.804 16.1975 751.972 17.2207 751.972C18.2439 751.972 19.0764 752.804 19.0764 753.827C19.0764 754.851 18.2441 755.683 17.2207 755.683ZM21.8396 772.527C20.4244 772.527 19.2728 773.679 19.2728 775.094C19.2728 776.51 20.4244 777.661 21.8396 777.661C23.2549 777.661 24.4065 776.509 24.4065 775.094C24.4065 773.679 23.255 772.527 21.8396 772.527ZM21.8396 776.95C20.8164 776.95 19.984 776.117 19.984 775.094C19.984 774.071 20.8163 773.238 21.8396 773.238C22.863 773.238 23.6953 774.071 23.6953 775.094C23.6953 776.117 22.8629 776.95 21.8396 776.95ZM12.7454 768.46C12.7454 767.045 11.5938 765.893 10.1784 765.893C8.763 765.893 7.6116 767.045 7.6116 768.46C7.6116 769.875 8.76311 771.027 10.1784 771.027C11.5937 771.027 12.7454 769.875 12.7454 768.46ZM8.32276 768.46C8.32276 767.437 9.15511 766.604 10.1784 766.604C11.2017 766.604 12.0342 767.437 12.0342 768.46C12.0342 769.483 11.2016 770.316 10.1784 770.316C9.15521 770.316 8.32276 769.483 8.32276 768.46ZM26.2621 783.136C24.8469 783.136 23.6953 784.287 23.6953 785.703C23.6953 787.118 24.8469 788.27 26.2621 788.27C27.6777 788.27 28.8293 787.118 28.8293 785.703C28.8293 784.287 27.6777 783.136 26.2621 783.136ZM26.2621 787.559C25.2389 787.559 24.4065 786.726 24.4065 785.703C24.4065 784.68 25.2388 783.847 26.2621 783.847C27.2854 783.847 28.118 784.679 28.118 785.703C28.118 786.726 27.2853 787.559 26.2621 787.559ZM28.4736 758.14C27.058 758.14 25.9064 759.291 25.9064 760.706C25.9064 762.122 27.058 763.273 28.4736 763.273C29.8888 763.273 31.0404 762.122 31.0404 760.706C31.0405 759.291 29.8889 758.14 28.4736 758.14ZM28.4736 762.562C27.4504 762.562 26.6177 761.73 26.6177 760.706C26.6177 759.683 27.4504 758.851 28.4736 758.851C29.4968 758.851 30.3292 759.683 30.3292 760.706C30.3292 761.73 29.4969 762.562 28.4736 762.562ZM35.4863 775.859C34.0711 775.859 32.9194 777.01 32.9194 778.426C32.9194 779.841 34.0711 780.993 35.4863 780.993C36.9015 780.993 38.0531 779.841 38.0531 778.426C38.0531 777.01 36.9015 775.859 35.4863 775.859ZM35.4863 780.281C34.4631 780.281 33.6306 779.449 33.6306 778.426C33.6306 777.402 34.4629 776.57 35.4863 776.57C36.5095 776.57 37.3419 777.402 37.3419 778.426C37.3419 779.449 36.5095 780.281 35.4863 780.281ZM-2.07213 770.316C-3.48755 770.316 -4.63916 771.467 -4.63916 772.883C-4.63916 774.298 -3.48755 775.45 -2.07213 775.45C-0.656707 775.45 0.494683 774.298 0.494683 772.883C0.494683 771.467 -0.656707 770.316 -2.07213 770.316ZM-2.07213 774.738C-3.09533 774.738 -3.92789 773.906 -3.92789 772.883C-3.92789 771.859 -3.09533 771.027 -2.07213 771.027C-1.04893 771.027 -0.216473 771.859 -0.216473 772.883C-0.216473 773.906 -1.04893 774.738 -2.07213 774.738ZM11.4589 786.468C10.0434 786.468 8.89184 787.619 8.89184 789.034C8.89184 790.45 10.0434 791.601 11.4589 791.601C12.8743 791.601 14.0257 790.45 14.0257 789.034C14.0258 787.619 12.8743 786.468 11.4589 786.468ZM11.4589 790.89C10.4357 790.89 9.6031 790.058 9.6031 789.034C9.6031 788.011 10.4356 787.179 11.4589 787.179C12.4821 787.179 13.3145 788.011 13.3145 789.034C13.3145 790.058 12.4822 790.89 11.4589 790.89Z" fill="#EDDDD8"/>
</g>
<defs>
<clipPath id="clip0_1657_2351">
<rect width="56" height="56" fill="white" transform="translate(348 112)"/>
</clipPath>
<clipPath id="clip1_1657_2351">
<rect width="56" height="56" fill="white" transform="translate(68.0001 270)"/>
</clipPath>
<clipPath id="clip2_1657_2351">
<rect width="56" height="56" fill="white" transform="translate(329 662)"/>
</clipPath>
<clipPath id="clip3_1657_2351">
<rect width="56" height="56" fill="white" transform="translate(247 420.598) rotate(-45)"/>
</clipPath>
<clipPath id="clip4_1657_2351">
<rect width="56" height="56" fill="white" transform="translate(11.598 504) rotate(45)"/>
</clipPath>
<clipPath id="clip5_1657_2351">
<rect width="56" height="56" fill="white" transform="translate(-12.9999 744)"/>
</clipPath>
</defs>
</svg>
